<svg width="520" height="436" viewBox="0 0 520 436" fill="none" xmlns="http://www.w3.org/2000/svg">
<rect width="519.935" height="435.818" fill="black" fill-opacity="0"/>
<path opacity="0.1" d="M82.7661 356.82C109.421 356.82 131.029 353.273 131.029 348.898C131.029 344.524 109.421 340.977 82.7661 340.977C56.1112 340.977 34.5031 344.524 34.5031 348.898C34.5031 353.273 56.1112 356.82 82.7661 356.82Z" fill="#C3002F"/>
<g opacity="0.1">
<rect width="162.632" height="126.079" fill="black" fill-opacity="0" transform="translate(12.4333 129.418)"/>
<path opacity="0.1" d="M167.37 129.418H20.1287C18.0896 129.424 16.1358 130.237 14.6939 131.679C13.2521 133.121 12.4393 135.075 12.4333 137.115V230.169C12.4393 232.208 13.2521 234.162 14.6939 235.605C16.1358 237.047 18.0896 237.86 20.1287 237.866H135.635C135.635 237.866 138.627 253.754 128.795 255.466C128.795 255.466 150.813 257.045 146.966 237.866H167.37C169.409 237.86 171.363 237.047 172.805 235.605C174.247 234.162 175.059 232.208 175.065 230.169V137.115C175.059 135.075 174.247 133.121 172.805 131.679C171.363 130.237 169.409 129.424 167.37 129.418Z" fill="black"/>
<g opacity="0.2">
<rect width="119.279" height="56.0161" fill="black" fill-opacity="0" transform="translate(34.1068 154.117)"/>
<path opacity="0.2" d="M150.13 154.117H37.3631C35.5647 154.117 34.1068 155.575 34.1068 157.374V158.132C34.1068 159.931 35.5647 161.389 37.3631 161.389H150.13C151.928 161.389 153.386 159.931 153.386 158.132V157.374C153.386 155.575 151.928 154.117 150.13 154.117Z" fill="black"/>
<path opacity="0.2" d="M150.13 186.617H37.3631C35.5647 186.617 34.1068 188.075 34.1068 189.874V190.632C34.1068 192.431 35.5647 193.889 37.3631 193.889H150.13C151.928 193.889 153.386 192.431 153.386 190.632V189.874C153.386 188.075 151.928 186.617 150.13 186.617Z" fill="black"/>
<path opacity="0.2" d="M130.88 202.861H37.3631C35.5647 202.861 34.1068 204.32 34.1068 206.118V206.876C34.1068 208.675 35.5647 210.133 37.3631 210.133H130.88C132.678 210.133 134.136 208.675 134.136 206.876V206.118C134.136 204.32 132.678 202.861 130.88 202.861Z" fill="black"/>
<path opacity="0.2" d="M82.5709 170.367H37.3631C35.5647 170.367 34.1068 171.825 34.1068 173.624V174.382C34.1068 176.181 35.5647 177.639 37.3631 177.639H82.5709C84.3692 177.639 85.8271 176.181 85.8271 174.382V173.624C85.8271 171.825 84.3692 170.367 82.5709 170.367Z" fill="black"/>
</g>
</g>
<path d="M168.656 128.774H21.4094C19.3703 128.781 17.4165 129.593 15.9746 131.036C14.5327 132.478 13.72 134.432 13.714 136.472V229.525C13.72 231.565 14.5327 233.519 15.9746 234.961C17.4165 236.403 19.3703 237.216 21.4094 237.222H136.916C136.916 237.222 139.913 253.11 130.076 254.816C130.076 254.816 152.094 256.396 148.246 237.222H168.656C170.695 237.216 172.648 236.403 174.089 234.961C175.53 233.519 176.342 231.564 176.346 229.525V136.472C176.342 134.433 175.53 132.478 174.089 131.036C172.648 129.594 170.695 128.781 168.656 128.774Z" fill="white"/>
<g opacity="0.2">
<rect width="119.279" height="56.0218" fill="black" fill-opacity="0" transform="translate(35.3933 153.474)"/>
<path opacity="0.2" d="M151.416 153.474H38.6495C36.8511 153.474 35.3933 154.932 35.3933 156.731V157.489C35.3933 159.288 36.8511 160.746 38.6495 160.746H151.416C153.215 160.746 154.673 159.288 154.673 157.489V156.731C154.673 154.932 153.215 153.474 151.416 153.474Z" fill="#C3002F"/>
<path opacity="0.2" d="M151.416 185.974H38.6495C36.8511 185.974 35.3933 187.432 35.3933 189.231V189.989C35.3933 191.788 36.8511 193.246 38.6495 193.246H151.416C153.215 193.246 154.673 191.788 154.673 189.989V189.231C154.673 187.432 153.215 185.974 151.416 185.974Z" fill="#C3002F"/>
<path opacity="0.2" d="M132.166 202.224H38.6495C36.8511 202.224 35.3933 203.682 35.3933 205.481V206.239C35.3933 208.038 36.8511 209.496 38.6495 209.496H132.166C133.965 209.496 135.422 208.038 135.422 206.239V205.481C135.422 203.682 133.965 202.224 132.166 202.224Z" fill="#C3002F"/>
<path opacity="0.2" d="M83.8573 169.724H38.6495C36.8511 169.724 35.3933 171.182 35.3933 172.981V173.739C35.3933 175.538 36.8511 176.996 38.6495 176.996H83.8573C85.6556 176.996 87.1135 175.538 87.1135 173.739V172.981C87.1135 171.182 85.6556 169.724 83.8573 169.724Z" fill="#C3002F"/>
</g>
<path d="M114.002 127.298L105.841 144.657C105.841 144.657 104.635 147.914 103.86 148.517C103.084 149.12 99.6559 159.431 99.6559 159.431L90.9095 172.952L90.3352 173.871L86.8895 172.923L84.4833 163.922L84.6326 161.309V160.981C84.6326 160.981 90.0481 155.318 91.2484 154.887C91.2484 154.887 92.1902 154.996 93.9992 150.608C95.8082 146.219 97.4449 145.266 97.4449 145.266L98.3867 142.083L108.529 125.937C108.529 125.937 117.028 113.742 119.342 119.153C121.657 124.564 114.002 127.298 114.002 127.298Z" fill="#FFD2C6"/>
<path d="M80.1187 250.595C80.0911 250.889 79.9969 251.174 79.843 251.427C78.9012 252.8 73.5776 280.889 73.5776 280.889C74.0025 282.784 72.808 286.564 72.027 288.281C71.2459 289.999 69.5346 298.931 69.5346 298.931C69.5346 298.931 69.1096 318.173 67.9955 321.178C66.8814 324.182 68.3515 330.627 68.3515 330.627C68.2424 333.59 70.0227 336.721 71.0794 338.318C71.1598 338.421 71.223 338.525 71.2861 338.611C71.6307 339.105 71.8604 339.386 71.8604 339.386C72.1487 339.963 72.5581 340.47 73.0607 340.874C73.1354 340.937 73.2158 340.995 73.3019 341.058C74.7605 342.039 76.3945 342.729 78.1144 343.091L78.281 343.126C78.9701 343.281 79.4295 343.338 79.4295 343.338L79.8545 345.636L75.3061 346.578L66.6344 347.152C66.6344 347.152 56.4121 347.928 58.7322 343.373C58.8953 343.062 59.0354 342.739 59.1515 342.408C59.2376 342.189 59.318 341.96 59.3869 341.73C60.7824 337.353 59.8406 332.034 59.8406 332.034L57.8421 316.554C54.5859 302.125 60.4149 286.058 60.4149 286.058C60.4149 286.058 59.9038 284.772 61.0237 281.509C62.1435 278.246 61.0237 271.118 61.0237 271.118C61.0237 271.118 60.4494 261.928 59.6511 257.373C59.3464 255.461 59.2425 253.522 59.341 251.588C59.3777 250.454 59.4813 249.322 59.6511 248.199L79.2343 245.603C79.2343 245.603 80.3369 248.774 80.1187 250.595Z" fill="#FFD2C6"/>
<path opacity="0.1" d="M79.8315 345.664L75.2832 346.607L66.6115 347.181C66.6115 347.181 56.3892 347.956 58.7093 343.401C58.8724 343.09 59.0125 342.768 59.1285 342.436C59.2147 342.218 59.2951 341.988 59.364 341.759C61.1334 341.814 62.8808 342.167 64.5325 342.804C67.4442 343.953 69.638 340.995 69.638 340.995L71.0507 338.295L71.2574 337.904C71.602 338.398 71.8317 338.68 71.8317 338.68C72.1701 339.344 72.6648 339.915 73.2732 340.345L73.032 340.851L71.6594 343.723C71.6594 343.723 73.4168 343.901 75.823 344.297C76.2874 344.423 76.7824 344.364 77.2043 344.133C77.6262 343.902 77.9421 343.516 78.0857 343.057L78.2523 343.091C78.9414 343.246 79.4008 343.304 79.4008 343.304L79.8315 345.664Z" fill="black"/>
<path d="M84.0411 347.807C83.6965 349.352 74.1231 349.829 74.1231 349.829C74.1231 349.829 68.7937 349.312 67.3006 350.558C65.8075 351.805 61.4084 351.506 61.2361 351.506C61.0639 351.506 58.7495 351.414 57.8421 347.256C56.9635 343.2 59.0251 342.494 59.1285 342.459C60.9818 342.485 62.8157 342.841 64.544 343.51C67.4557 344.659 69.6494 341.707 69.6494 341.707L71.2689 338.611C71.6135 339.105 71.8432 339.386 71.8432 339.386C72.1788 340.054 72.674 340.628 73.2847 341.058L71.6709 344.453C71.6709 344.453 73.4282 344.631 75.8345 345.027C77.7584 345.337 78.1776 343.769 78.2637 343.137C78.2694 343.051 78.2694 342.965 78.2637 342.879C78.2637 342.879 79.7626 343.309 81.6061 343.826C82.4371 344.064 83.1486 344.605 83.5996 345.342C84.0506 346.079 84.2082 346.959 84.0411 347.807Z" fill="#626696"/>
<path d="M102.079 271.066C101.85 272.439 101.614 275.995 101.614 275.995C102.418 278.97 100.357 286.041 100.357 286.041L99.3286 290.062C99.788 295.232 96.4973 307.817 96.4973 307.817C96.4973 307.817 94.2921 319.5 93.1435 324.544C92.4581 327.342 92.6588 330.285 93.7178 332.964C93.7752 333.102 93.8097 333.171 93.8097 333.171C93.8097 333.269 93.8499 333.361 93.8786 333.453C93.9073 333.545 93.9533 333.728 93.9992 333.86C94.2627 334.564 94.6519 335.214 95.1478 335.779C95.3363 336.005 95.5417 336.216 95.7622 336.411L95.7967 336.445C96.8749 337.4 98.1108 338.16 99.4492 338.691L100.023 338.921C100.619 339.146 101.227 339.338 101.844 339.495C101.912 339.515 101.981 339.53 102.051 339.541L101.586 342.241L95.5211 340.69L87.3949 338.054L83.3749 335.756C83.3749 335.756 83.4208 335.538 83.5012 335.118C83.5012 335.118 83.5012 335.072 83.5012 335.05C83.5357 334.871 83.5702 334.659 83.6218 334.418C84.3052 330.914 85.8616 320.977 85.0805 313.682C84.11 304.635 87.8773 292.147 88.7962 289.172C89.3403 287.472 89.5738 285.687 89.4853 283.904C87.9922 281.722 87.6476 273.025 87.6476 273.025C87.6476 273.025 84.9025 267.407 82.6283 261.451C81.8781 259.506 81.3296 257.488 80.9916 255.431C80.7268 253.98 80.6151 252.505 80.6585 251.031C80.6585 251.031 99.1046 234.195 101.126 250.497C101.195 251.071 101.258 251.577 101.321 252.094C103.09 266.994 102.298 269.74 102.079 271.066Z" fill="#FFD2C6"/>
<path opacity="0.1" d="M102.079 339.559L101.614 342.258L95.5498 340.707L87.4236 338.071L83.4036 335.773C83.4036 335.773 83.4496 335.555 83.53 335.136C83.53 335.136 83.53 335.09 83.53 335.067C83.5644 334.889 83.5989 334.676 83.6505 334.435L84.2248 334.377H84.2708C85.4261 334.27 86.5907 334.427 87.6763 334.837C88.9972 335.337 90.7315 335.905 91.0876 335.664C91.7014 335.401 92.3676 335.283 93.0344 335.319L93.8786 333.47L93.9992 333.188C94.2613 333.893 94.6506 334.543 95.1478 335.107C95.3479 335.344 95.5647 335.567 95.7967 335.773L95.7622 336.428L95.7163 337.353C96.6228 337.934 97.6043 338.388 98.6337 338.703C98.9014 338.769 99.1814 338.769 99.4492 338.703L100.023 338.932C100.619 339.157 101.227 339.349 101.844 339.507C101.921 339.529 102 339.546 102.079 339.559Z" fill="black"/>
<path d="M99.0701 345.32C97.376 344.832 93.2928 344.056 92.6324 344.659C91.972 345.262 86.3152 344.659 86.3152 344.659C85.7208 344.649 85.1391 344.484 84.6269 344.183C84.1147 343.881 83.6893 343.451 83.3921 342.936C82.2436 341.104 83.1682 335.176 83.1682 335.176L83.5874 335.136L84.288 335.067H84.334C85.4893 334.957 86.6546 335.114 87.7395 335.526C89.0603 336.02 90.7947 336.589 91.1507 336.353C91.7637 336.087 92.4306 335.969 93.0976 336.009L94.0624 333.878C94.3259 334.582 94.7151 335.232 95.2109 335.796C95.411 336.034 95.6279 336.256 95.8599 336.463L95.7795 338.042C96.6867 338.62 97.6681 339.072 98.6969 339.386C98.9453 339.488 99.2215 339.499 99.4774 339.419C99.7334 339.338 99.953 339.17 100.098 338.944C100.144 338.871 100.179 338.792 100.201 338.708C100.253 338.806 100.81 338.996 102.596 339.507C104.537 339.398 106.41 340.242 107.271 342.873C108.132 345.504 100.73 345.802 99.0701 345.32Z" fill="#626696"/>
<path opacity="0.1" d="M80.1187 250.595C79.7397 250.704 79.3951 250.807 79.0735 250.91C78.2469 251.164 77.3993 251.343 76.5409 251.445C71.1254 252.209 62.1837 251.749 59.3525 251.571C59.3892 250.436 59.4927 249.305 59.6626 248.182L79.2458 245.586C79.2458 245.586 80.3369 248.774 80.1187 250.595Z" fill="black"/>
<path d="M97.1865 245.838C97.1865 245.838 89.9964 246.953 84.1502 248.234C82.1976 248.659 80.3943 249.101 79.062 249.538C78.234 249.785 77.3869 249.964 76.5294 250.072C70.017 250.985 58.4509 250.141 58.4509 250.141C55.2751 239.836 62.3101 226.86 62.3101 226.86C62.1435 225.826 63.7745 222.655 63.7745 222.655L63.8032 222.552L64.8025 218.876H91.5125L91.8399 220.455L92.5175 223.672L96.7098 243.587L97.1865 245.838Z" fill="#626696"/>
<path opacity="0.1" d="M101.321 252.088L101.161 252.157L98.0364 253.541C94.6539 255.104 84.5292 255.397 80.9916 255.425C80.7268 253.974 80.6151 252.5 80.6585 251.025C80.6585 251.025 99.1046 234.19 101.126 250.491C101.195 251.071 101.258 251.571 101.321 252.088Z" fill="black"/>
<path d="M101.815 250.497L101.161 250.784L98.0364 252.174C94.5907 253.76 84.1444 254.041 80.8078 254.058H79.9292C78.3843 254.007 76.8395 252.559 76.8395 252.18C76.8395 251.973 76.6787 250.956 76.5409 250.083C76.426 249.383 76.3227 248.779 76.3227 248.779C76.3227 248.779 69.4312 245.804 65.9338 243.397C63.3093 241.611 63.9698 228.916 64.4809 222.535C64.6589 220.335 64.814 218.887 64.814 218.887L91.8513 220.467L95.6416 220.685L97.8124 221.168L98.3867 221.288C98.3867 221.288 99.9373 232.627 100.684 233.569C101.43 234.511 100.948 237.693 100.856 239.503C100.853 240.275 100.768 241.045 100.603 241.8C100.603 241.8 101.718 244.983 101.453 246.763C101.335 248.02 101.458 249.287 101.815 250.497Z" fill="#626696"/>
<path d="M72.8769 156.334C78.9951 156.334 83.9549 151.374 83.9549 145.254C83.9549 139.135 78.9951 134.174 72.8769 134.174C66.7587 134.174 61.799 139.135 61.799 145.254C61.799 151.374 66.7587 156.334 72.8769 156.334Z" fill="#FFD2C6"/>
<path d="M67.4844 149.878C67.4844 149.878 68.2539 160.373 66.1119 162.779C63.9698 165.186 58.382 169.735 58.382 169.735L60.1048 176.864L69.8103 177.984L81.1467 165.87L78.5681 162.693C78.5681 162.693 76.5926 155.99 78.2236 152.641C79.8545 149.292 67.4844 149.878 67.4844 149.878Z" fill="#FFD2C6"/>
<path opacity="0.1" d="M90.9095 172.952L90.3352 173.871L86.8895 172.923L84.4833 163.922L84.6326 161.309L85.339 160.292C85.339 160.292 89.1178 160.384 88.9512 163.819C88.7847 166.835 90.5018 171.803 90.9095 172.952Z" fill="black"/>
<path opacity="0.1" d="M98.381 222.655C98.381 222.655 95.6474 223.264 92.5175 223.672C89.3877 224.08 85.7754 224.287 84.2937 223.425C81.8071 221.955 68.3343 222.374 64.4694 222.523C64.1937 222.523 63.9755 222.523 63.8032 222.552L64.8025 218.876H91.5125L91.8399 220.455L95.6302 220.674L97.801 221.156C98.1628 222.047 98.381 222.655 98.381 222.655Z" fill="black"/>
<path d="M84.6441 160.976C84.6441 160.976 88.4229 161.062 88.2506 164.497C88.0783 167.932 90.3123 173.86 90.3123 173.86L89.4508 175.836C89.4508 175.836 88.2506 180.643 89.1924 181.85C90.1342 183.056 93.5742 183.05 91.5987 192.93C91.5987 192.93 91.1737 200.317 92.2017 202.724C93.2297 205.13 93.2296 210.88 94.7745 213.287C96.3193 215.694 98.3867 221.277 98.3867 221.277C98.3867 221.277 87.2169 223.764 84.2995 222.047C81.3821 220.329 63.4299 221.202 63.4299 221.202C63.4299 221.202 63.5161 218.192 63.4299 217.853C63.3514 217.477 63.349 217.09 63.423 216.713C63.497 216.336 63.6458 215.978 63.8606 215.659C64.4349 214.844 65.4055 213.471 64.8886 212.27C64.3718 211.07 66.1808 209.295 65.2332 207.434C64.2856 205.573 63.137 205.199 63.3668 204.183C63.5965 203.166 62.9992 201.787 62.3158 200.931C61.6324 200.076 56.9864 190.994 56.9864 190.994L56.2169 186.738C56.2169 186.738 50.2386 182.355 50.3477 180.293C50.4568 178.231 52.6104 175.376 52.6104 175.376L58.3532 169.73C58.3532 169.73 61.529 173.176 64.6187 171.964C67.7084 170.752 74.3758 165.008 74.3758 165.008C74.3758 165.008 76.7534 163.721 76.9257 162.779C77.0979 161.837 78.5566 162.693 78.5566 162.693C78.5566 162.693 80.7045 161.516 81.1352 161.929C81.5659 162.343 83.4323 162.693 83.4323 162.693L84.6441 160.976Z" fill="#FFCDE5"/>
<path d="M52.1797 178.868L50.3477 180.299C50.3477 180.299 48.487 183.653 48.0505 189.662C47.6141 195.67 45.7534 204.171 45.7534 204.171L42.1469 210.622C42.1469 210.622 36.203 223.069 35.4335 226.372C34.6639 229.675 31.1378 235.264 31.1378 235.264C31.1378 235.264 19.1984 245.994 27.5313 247.901C35.8642 249.808 36.1169 239.359 36.1169 239.359C36.1169 239.359 38.0637 237.211 38.3796 235.752C38.6954 234.293 49.2565 215.607 49.2565 215.607C49.2565 215.607 52.9549 210.581 52.1797 207.922C52.1797 207.922 56.9864 196.612 56.9864 193.774C56.8956 191.414 56.6385 189.062 56.2169 186.738L56.9864 180.81L52.1797 178.868Z" fill="#FFD2C6"/>
<path opacity="0.1" d="M76.9142 202.551C76.9142 202.551 68.4951 206.957 66.8642 207.187C65.2332 207.416 73.9911 206.268 73.9911 206.268L76.9142 202.551Z" fill="black"/>
<path opacity="0.1" d="M83.7826 205.986C83.7826 205.986 72.6185 209.766 67.7026 209.076C67.7256 209.076 79.9177 211.397 83.7826 205.986Z" fill="black"/>
<path opacity="0.1" d="M84.4718 207.221C84.4718 207.221 74.4218 213.54 68.4951 212.511C68.4951 212.511 82.324 215.263 84.4718 213.804L78.2867 212.081C78.2867 212.081 85.1609 208.45 84.4718 207.221Z" fill="black"/>
<path opacity="0.1" d="M72.8942 125.759C69.9883 125.184 66.7665 125.529 64.4407 127.356C62.7178 128.711 61.5692 130.802 59.6339 131.79C58.6095 132.221 57.5605 132.591 56.4925 132.899C54.6082 133.669 53.0379 135.051 52.0347 136.822C51.0314 138.594 50.6536 140.651 50.9622 142.664C51.2665 144.387 52.0648 145.938 52.4553 147.615C53.1559 150.613 52.5415 153.755 51.7776 156.737C49.6594 165.022 46.4436 172.986 42.2158 180.419C41.8789 180.879 41.7106 181.441 41.7391 182.01C41.8398 182.393 42.0376 182.743 42.3134 183.027C46.2817 187.622 52.7425 189.191 58.8069 189.397C61.0409 189.472 63.4012 189.397 65.3423 188.312C66.6076 187.585 67.6961 186.586 68.5296 185.388C70.6461 182.498 71.6973 178.965 71.5044 175.388C71.3378 172.516 70.3558 169.592 71.0966 166.806C71.1752 166.417 71.3533 166.055 71.6135 165.755C72.2682 165.088 73.3364 165.261 74.2782 165.152C76.7993 164.859 78.4303 162.199 78.7289 159.683C79.0275 157.167 78.3958 154.623 78.3843 152.09C78.3707 148.735 79.418 145.462 81.3764 142.738C82.2148 141.589 83.2887 140.441 83.5701 138.999C83.9262 137.19 82.8753 135.857 81.9679 134.404C80.5609 132.175 79.8717 129.573 77.7296 127.873C76.3045 126.801 74.6487 126.077 72.8942 125.759Z" fill="black"/>
<path d="M72.205 125.07C69.3049 124.495 66.0774 124.84 63.7515 126.672C62.0287 128.022 60.8801 130.119 58.9447 131.107C57.9225 131.537 56.8754 131.905 55.8091 132.209C53.9244 132.979 52.3535 134.361 51.3492 136.132C50.345 137.904 49.9659 139.961 50.273 141.974C50.5774 143.698 51.3757 145.248 51.7719 146.931C52.4725 149.93 51.8523 153.066 51.0943 156.047C48.9808 164.331 45.7709 172.296 41.5496 179.73C41.2121 180.187 41.0455 180.748 41.0787 181.315C41.1756 181.7 41.3739 182.051 41.653 182.332C45.627 186.927 52.082 188.496 58.1465 188.702C60.3805 188.783 62.7408 188.702 64.6819 187.622C65.9473 186.893 67.0358 185.893 67.8692 184.693C69.9745 181.807 71.0192 178.283 70.8267 174.716C70.6602 171.843 69.6782 168.92 70.4247 166.128C70.5016 165.74 70.6777 165.377 70.9358 165.077C71.5905 164.411 72.6587 164.583 73.6063 164.503C76.1274 164.21 77.7526 161.55 78.0512 159.028C78.3499 156.507 77.7239 153.974 77.7067 151.435C77.6853 148.071 78.7309 144.787 80.693 142.055C81.5314 140.906 82.5996 139.757 82.881 138.31C83.2371 136.5 82.1919 135.173 81.2845 133.714C79.8775 131.486 79.1883 128.884 77.0405 127.189C75.617 126.113 73.9607 125.387 72.205 125.07Z" fill="#985C7E"/>
<path opacity="0.1" d="M68.4951 232.472C68.4951 232.472 70.7004 242.777 74.3643 245.586L68.4951 232.472Z" fill="black"/>
<g opacity="0.1">
<rect width="41.8817" height="53.414" fill="black" fill-opacity="0" transform="translate(41.061 135.277)"/>
<path opacity="0.1" d="M50.9277 144.272C50.8128 143.87 50.6808 143.468 50.5429 143.071C50.6578 143.474 50.7899 143.876 50.9277 144.272Z" fill="black"/>
<path opacity="0.1" d="M82.2608 135.277C82.2879 135.601 82.2724 135.927 82.2148 136.248C81.9277 137.701 80.8595 138.832 80.0211 139.993C78.061 142.713 77.0135 145.985 77.029 149.338C77.029 151.877 77.6665 154.41 77.3679 156.932C77.0692 159.454 75.444 162.102 72.9229 162.406C71.9925 162.515 70.9071 162.337 70.2582 162.98C69.998 163.28 69.8199 163.642 69.7413 164.032C69.012 166.823 69.9825 169.741 70.1433 172.619C70.3375 176.185 69.2948 179.71 67.1915 182.596C66.3567 183.795 65.2685 184.795 64.0042 185.526C62.0344 186.588 59.7028 186.675 57.4631 186.606C51.502 186.405 45.1619 184.882 41.1763 180.454C41.0701 180.716 41.0364 181.001 41.0787 181.281C41.1756 181.665 41.374 182.016 41.653 182.298C45.6271 186.893 52.082 188.461 58.1465 188.668C60.3805 188.748 62.7408 188.668 64.6819 187.588C65.9462 186.857 67.0343 185.857 67.8692 184.658C69.9745 181.773 71.0192 178.248 70.8267 174.681C70.6602 171.809 69.6782 168.885 70.4247 166.094C70.5017 165.705 70.6777 165.343 70.9358 165.042C71.5905 164.376 72.6587 164.549 73.6063 164.468C76.1274 164.175 77.7526 161.516 78.0513 158.994C78.3499 156.472 77.7239 153.939 77.7067 151.4C77.6926 148.048 78.7378 144.777 80.693 142.055C81.5314 140.906 82.5996 139.757 82.881 138.31C83.0622 137.257 82.8408 136.174 82.2608 135.277Z" fill="black"/>
</g>
<path d="M279.586 413.324C279.586 413.324 257.734 412.003 260.312 427.316C260.312 427.316 259.801 430.022 262.254 431.251C262.254 431.251 262.294 430.102 264.493 430.504C265.277 430.636 266.073 430.675 266.865 430.619C267.938 430.545 268.958 430.124 269.771 429.419C269.771 429.419 275.91 426.88 278.299 416.839C278.299 416.839 280.068 414.651 280.022 414.088L276.335 415.662C276.335 415.662 277.593 418.321 276.599 420.533C276.599 420.533 276.484 415.759 275.772 415.874C275.629 415.874 273.86 416.793 273.86 416.793C273.86 416.793 276.025 421.429 274.388 424.795C274.388 424.795 275.008 419.085 273.182 417.132L270.586 418.643C270.586 418.643 273.119 423.433 271.402 427.339C271.402 427.339 271.844 421.348 270.041 419.016L267.686 420.849C267.686 420.849 270.07 425.564 268.617 428.804C268.617 428.804 268.427 421.831 267.175 421.337C267.175 421.337 265.119 423.146 264.809 423.893C264.809 423.893 266.434 427.339 265.424 429.126C265.424 429.126 264.803 424.479 264.275 424.462C264.275 424.462 262.225 427.54 262.012 429.631C262.111 427.68 262.719 425.789 263.775 424.146C262.594 424.369 261.504 424.934 260.64 425.771C260.64 425.771 260.956 423.594 264.281 423.405C264.281 423.405 266.004 421.073 266.429 420.929C266.429 420.929 263.121 420.653 261.116 421.544C261.116 421.544 262.88 419.487 267.037 420.395L269.334 418.499C269.334 418.499 264.981 417.925 263.132 418.562C263.132 418.562 265.257 416.742 269.96 418.068L272.487 416.552C272.487 416.552 268.777 415.754 266.566 416.041C266.566 416.041 268.898 414.783 273.228 416.15L275.037 415.334C275.037 415.334 272.315 414.8 271.523 414.72C270.73 414.639 270.684 414.415 270.684 414.415C272.406 414.129 274.174 414.327 275.789 414.99C275.789 414.99 279.649 413.565 279.586 413.324Z" fill="#C3002F"/>
<path opacity="0.1" d="M264.534 435.203C273.075 435.203 279.999 434.033 279.999 432.589C279.999 431.146 273.075 429.976 264.534 429.976C255.992 429.976 249.068 431.146 249.068 432.589C249.068 434.033 255.992 435.203 264.534 435.203Z" fill="#C3002F"/>
<path d="M450.786 394.598C450.786 394.598 428.963 393.283 431.513 408.596C431.513 408.596 431.002 411.302 433.454 412.531C433.454 412.531 433.494 411.382 435.694 411.779C436.479 411.91 437.277 411.949 438.071 411.894C439.143 411.822 440.162 411.4 440.971 410.693C440.971 410.693 447.116 408.16 449.5 398.119C449.5 398.119 451.268 395.925 451.223 395.362L447.513 396.97C447.513 396.97 448.77 399.63 447.783 401.841C447.783 401.841 447.662 397.062 446.956 397.177C446.812 397.177 445.037 398.096 445.037 398.096C445.037 398.096 447.203 402.732 445.572 406.104C445.572 406.104 446.192 400.394 444.36 398.435L441.764 399.952C441.764 399.952 444.297 404.736 442.58 408.642C442.58 408.642 443.022 402.651 441.218 400.319L438.87 402.14C438.87 402.14 441.247 406.862 439.794 410.101C439.794 410.101 439.605 403.122 438.358 402.6C438.358 402.6 436.303 404.415 435.987 405.161C435.987 405.161 437.618 408.608 436.607 410.389C436.607 410.389 435.987 405.747 435.458 405.724C435.458 405.724 433.408 408.803 433.196 410.894C433.295 408.942 433.905 407.051 434.964 405.408C433.781 405.633 432.69 406.198 431.823 407.034C431.823 407.034 432.145 404.863 435.47 404.668C435.47 404.668 437.193 402.335 437.618 402.192C437.618 402.192 434.31 401.916 432.3 402.806C432.3 402.806 434.069 400.75 438.221 401.686L440.518 399.791C440.518 399.791 436.159 399.216 434.316 399.854C434.316 399.854 436.44 398.039 441.144 399.36L443.671 397.849C443.671 397.849 439.955 397.045 437.744 397.338C437.744 397.338 440.076 396.08 444.411 397.441L446.22 396.632C446.22 396.632 443.498 396.097 442.7 396.011C441.902 395.925 441.862 395.707 441.862 395.707C443.586 395.42 445.355 395.619 446.973 396.281C446.973 396.281 450.855 394.839 450.786 394.598Z" fill="#C3002F"/>
<path opacity="0.1" d="M435.734 416.477C444.275 416.477 451.2 415.307 451.2 413.864C451.2 412.42 444.275 411.25 435.734 411.25C427.193 411.25 420.268 412.42 420.268 413.864C420.268 415.307 427.193 416.477 435.734 416.477Z" fill="#C3002F"/>
<path opacity="0.1" d="M467.274 232.713C491.87 232.713 511.81 229.442 511.81 225.407C511.81 221.372 491.87 218.1 467.274 218.1C442.677 218.1 422.738 221.372 422.738 225.407C422.738 229.442 442.677 232.713 467.274 232.713Z" fill="#C3002F"/>
<path d="M519.126 81.3285C520.947 75.2226 519.126 69.1167 519.126 69.1167V63.3726C519.126 63.3726 521.205 52.1085 511.948 44.8825L505.803 39.4658C505.803 39.4658 502.357 36.5134 501.363 36.3238C501.174 36.2828 500.982 36.254 500.789 36.2377L500.605 36.1343C500.078 35.23 499.629 34.2827 499.262 33.3024C499.659 33.3533 500.063 33.3125 500.442 33.183C500.821 33.0536 501.166 32.839 501.45 32.5557C501.671 32.3011 501.846 32.0095 501.966 31.6941C502.322 30.8957 502.38 29.9307 502.684 29.0806C502.95 28.39 503.339 27.7535 503.833 27.2022C503.77 27.3056 503.707 27.4033 503.649 27.5067C504.516 26.4268 505.653 25.4963 506.463 24.3532C506.626 24.1288 506.776 23.8948 506.911 23.6524L506.79 23.796C507.939 21.9809 508.266 19.7752 508.594 17.6614C508.751 16.9396 508.763 16.1935 508.628 15.4671C508.472 14.9837 508.266 14.5178 508.014 14.0771C506.681 11.3199 506.71 7.86199 504.568 5.66201C502.966 4.01347 500.548 3.50799 498.251 3.22653C495.954 2.94507 493.559 2.78424 491.595 1.58373C491.044 1.16788 490.437 0.833227 489.792 0.590006C489.465 0.476826 489.109 0.48085 488.786 0.601387C488.462 0.721925 488.19 0.951457 488.017 1.25057C487.977 1.42572 487.896 1.58902 487.782 1.72733C487.679 1.78675 487.563 1.82132 487.445 1.8283C487.326 1.83528 487.207 1.81448 487.098 1.76754L484.054 0.951881L484.089 1.10697H484.014L484.123 1.58947C484.221 1.58947 484.324 1.58947 484.41 1.75605L483.922 2.50852C482.978 2.49115 482.044 2.2963 481.172 1.93411C481.169 1.98386 481.169 2.03372 481.172 2.08346H481.131C481.074 2.94507 482.05 3.50225 482.349 4.31216C482.47 4.66592 482.47 5.04977 482.349 5.40353C482.222 5.73204 482.026 6.02967 481.775 6.27663C480.689 7.34502 479.311 7.13249 478.065 7.81029C477.957 7.85506 477.86 7.92306 477.782 8.00944C477.704 8.09583 477.645 8.19847 477.611 8.31003C477.564 8.39368 477.549 8.49204 477.571 8.58574C477.619 8.71549 477.707 8.82628 477.823 8.90166C478.187 9.19384 478.584 9.44074 479.006 9.6369L478.65 9.98155C477.074 11.587 475.919 13.5579 475.289 15.7183C474.659 17.8788 474.573 20.1616 475.039 22.3632C475.505 24.5648 476.509 26.6168 477.961 28.3361C479.413 30.0554 481.267 31.3886 483.36 32.2168C483.405 32.4523 483.44 32.6936 483.474 32.9521C483.474 32.9521 483.474 32.998 483.474 33.021L483.509 33.3484L479.403 35.0716C478.784 35.0674 478.179 34.8875 477.659 34.553C477.138 34.2184 476.723 33.7429 476.462 33.1818C475.509 31.2059 472.138 33.1818 472.138 33.1818C472.138 33.1818 461.841 32.4064 458.034 34.3019C458.034 34.3019 451.889 31.7228 451.027 31.5505C450.166 31.3782 448.862 30.6889 448.253 30.8612C447.645 31.0335 446.869 29.7124 446.439 29.8273C446.008 29.9422 445.864 28.9714 444.452 28.6268C443.039 28.2821 442.545 28.7129 441.006 27.162C439.467 25.6111 426.815 19.5109 426.815 19.5109L421.107 14.864L415.048 10.0505L414.939 10.2515C414.905 10.1079 414.864 9.95857 414.824 9.80348C414.229 7.40251 413.479 5.04253 412.579 2.73828C412.188 1.80775 412.004 0.630216 411.493 1.25057C411.172 1.62394 410.62 0.80828 409.771 0.25685C409.596 0.134876 409.395 0.0535992 409.185 0.0189701C408.975 -0.015659 408.759 -0.00276264 408.554 0.0567155C408.349 0.116194 408.16 0.220745 408.001 0.362715C407.842 0.504684 407.717 0.680475 407.634 0.877209C402.919 8.26982 401.231 8.80402 403.964 11.5095C406.394 13.922 408.013 16.053 410 16.6791L410.236 16.7538C410.192 16.7626 410.147 16.7626 410.104 16.7538L421.589 30.5108C421.589 30.5108 429.893 37.7369 435.608 40.0575C441.322 42.3781 440.885 43.0673 440.885 43.0673C440.885 43.0673 458.189 51.8385 460.87 51.6834C463.552 51.5284 463.036 69.6566 461.91 72.5803C460.784 75.5041 458.97 96.6594 458.97 96.6594C458.97 96.6594 457.247 101.128 459.056 104.224C459.056 104.224 459.458 110.152 459.096 111.571C457.517 114.001 455.271 118.125 454.904 122.37C454.904 122.594 454.858 122.806 454.835 123.025C454.72 123.159 454.582 123.272 454.427 123.358C454.427 123.358 454.576 123.323 454.812 123.243C454.64 125.006 454.254 126.742 453.663 128.413C452.744 130.795 452.265 133.326 452.25 135.88V149.545L451.108 158.018C451.108 158.018 449.724 164.434 451.108 165.927C451.695 166.673 451.967 167.619 451.866 168.564C451.807 169.658 452.119 170.741 452.75 171.637C452.991 171.9 453.167 172.215 453.267 172.558C453.366 172.9 453.386 173.261 453.324 173.613C452.865 175.1 454.002 190.92 454.002 190.92C454.002 190.92 453.669 195.279 453.21 195.515C452.75 195.75 453.979 200.524 453.979 200.524C453.979 200.524 449.304 204.424 450.493 206.492L451.688 208.324L451.372 208.634L451.177 208.829C450.817 208.621 450.398 208.542 449.988 208.605C448.521 210.11 446.949 211.51 445.284 212.793C443.177 214.315 437.44 216.521 437.44 216.521L432.914 216.888H432.828C432.828 216.888 430.663 216.687 431.875 220.042C433.087 223.396 443.935 222.34 443.935 222.34L450.252 221.34C450.252 221.34 461.554 221.392 464.787 220.679C466.142 220.375 466.464 219.657 466.378 218.922L466.343 218.887C466.19 218.189 465.873 217.538 465.419 216.986C465.394 216.952 465.368 216.919 465.338 216.888L465.545 214.591C470.34 211.828 464.19 206.388 464.19 206.388C464.19 206.388 466.292 201.793 467.377 200.317C468.463 198.841 468.457 176.927 468.457 176.927C468.457 176.927 469.031 169.012 467.532 167.162C467.507 166.566 467.643 165.974 467.928 165.449C468.212 164.924 468.633 164.486 469.146 164.181C470.214 163.451 473.442 153.405 475.974 145.065L477.571 154.893C477.571 154.893 477.226 159.591 478.266 160.97C478.459 161.229 478.596 161.524 478.669 161.839C478.742 162.153 478.75 162.479 478.691 162.797C478.437 164.122 478.518 165.49 478.926 166.777C479.042 167.326 479.335 167.823 479.759 168.19C480.683 168.65 480.741 170.287 481.085 170.631C481.43 170.976 483.566 170.143 483.681 171.401C483.747 172.509 483.747 173.619 483.681 174.727L484.376 195.136C484.376 195.136 483.227 196.859 482.992 201.328C482.894 203.258 482.533 204.355 482.159 204.981C481.952 205.318 481.857 205.712 481.888 206.106C481.919 206.501 482.074 206.875 482.332 207.175L482.533 207.405L481.677 208.066C481.338 208.329 481.1 208.702 481.004 209.12C480.908 209.539 480.959 209.978 481.149 210.363C480.873 210.603 480.675 210.92 480.58 211.273C480.485 211.626 480.497 211.999 480.614 212.345C480.656 212.456 480.706 212.563 480.764 212.667C480.117 212.769 479.516 213.065 479.041 213.517C478.19 214.689 477.163 215.724 475.997 216.584C474.302 217.879 472.68 219.267 471.139 220.743C470.414 221.747 469.435 222.54 468.302 223.04C468.025 223.152 467.739 223.237 467.446 223.293C465.149 223.758 465.89 226.136 467.733 226.51C469.577 226.883 475.693 228.773 480.454 227.659C480.454 227.659 481.866 228.233 483.94 227.176C486.013 226.119 490.733 224.878 490.733 224.878C490.733 224.878 493.329 224.878 493.674 223.844C493.766 223.517 493.817 223.179 493.823 222.839L493.898 222.77L493.829 222.707C493.835 221.938 493.775 221.169 493.651 220.41C493.588 220.019 493.513 219.663 493.444 219.381C493.22 218.52 492.812 217.411 492.634 216.94C492.664 216.902 492.691 216.862 492.715 216.819C493.702 215.148 492.06 211.075 492.06 211.075C492.604 210.223 493.263 209.45 494.018 208.778C494.943 208.094 497.366 190.207 497.366 190.207C497.366 190.207 497.252 185.612 498.515 183.556C499.778 181.499 496.792 168.994 496.792 168.994C496.792 168.994 495.523 166.122 495.988 165.094C496.453 164.066 495.523 160.281 495.523 160.281V155.766C495.522 155.227 495.432 154.691 495.259 154.18C494.903 153.118 494.374 151.079 494.949 149.585C495.758 147.523 497.602 134.794 497.602 134.794C497.602 134.794 496.16 129.182 498.268 124.713C498.438 124.355 498.63 124.008 498.842 123.674C500.404 121.215 499.939 116.85 499.17 113.334C499.049 112.789 498.923 112.266 498.796 111.766C498.739 111.554 498.682 111.353 498.63 111.152L498.877 111.048C498.877 111.048 498.877 110.709 498.951 110.141C499.806 109.975 500.617 109.634 501.333 109.14C502.05 108.645 502.656 108.008 503.115 107.269C503.115 107.269 508.393 101.335 513.067 98.8422C517.742 96.3493 518.087 92.7363 518.087 92.7363C517.392 91.53 519.321 86.6303 519.321 86.6303L519.126 81.3285ZM503.925 89.2381L498.928 95.0339C498.927 95.0224 498.927 95.0108 498.928 94.9994C497.631 93.1958 500.14 89.152 500.14 89.152L504.269 79.8983C504.235 81.093 504.091 82.1385 503.729 82.6324C502.581 84.1833 505.803 86.7624 505.803 86.7624C504.074 86.7452 503.902 89.2381 503.902 89.2381H503.925Z" fill="url(#paint0_linear)"/>
<path d="M415.927 13.2671L413.205 18.5574C412.34 18.4864 411.488 18.309 410.666 18.029C409.364 17.6371 408.16 16.9738 407.132 16.0827C406.105 15.1917 405.278 14.0931 404.705 12.8593C402.27 7.47138 406.302 3.99048 408.18 2.96804C410.058 1.94559 411.798 0.768061 413.205 4.11685C414.091 6.40752 414.831 8.75195 415.421 11.1361C415.732 12.4113 415.927 13.2671 415.927 13.2671Z" fill="#CC818C"/>
<path d="M502.598 40.8386L498.245 47.3352C498.245 47.3352 477.651 57.1575 481.591 45.6119C483.314 40.5285 483.526 36.8063 483.216 34.233C483.216 34.233 483.216 34.187 483.216 34.164C482.814 30.9474 481.602 29.5688 481.602 29.5688C481.602 29.5688 501.674 19.2984 498.687 26.3234C498.079 27.7842 497.834 29.3711 497.975 30.9474C498.223 33.2178 498.962 35.4071 500.14 37.3635C500.841 38.6012 501.665 39.7654 502.598 40.8386Z" fill="#CC818C"/>
<path d="M496.361 169.385C496.361 169.385 499.325 181.804 498.084 183.854C496.844 185.905 496.936 190.46 496.936 190.46C496.936 190.46 494.541 208.238 493.628 208.921C492.88 209.594 492.229 210.368 491.692 211.219C491.692 211.219 493.318 215.24 492.341 216.906C492.194 217.163 491.966 217.365 491.692 217.48C490.165 218.123 484.525 215.269 481.315 213.517C480.911 213.301 480.606 212.936 480.465 212.5C480.346 212.158 480.331 211.788 480.425 211.437C480.518 211.087 480.714 210.773 480.988 210.535C480.799 210.15 480.747 209.712 480.842 209.294C480.938 208.876 481.173 208.503 481.51 208.238L482.355 207.583L482.159 207.353C481.904 207.054 481.751 206.682 481.72 206.29C481.689 205.898 481.782 205.506 481.987 205.17C482.355 204.55 482.711 203.447 482.808 201.546C483.038 197.1 484.175 195.394 484.175 195.394L483.492 175.112C483.554 174.012 483.554 172.909 483.492 171.809C483.377 170.557 481.269 171.384 480.93 171.039C480.592 170.695 480.528 169.075 479.621 168.615C479.2 168.251 478.909 167.759 478.794 167.214C478.392 165.934 478.311 164.575 478.559 163.256C478.617 162.941 478.61 162.617 478.538 162.305C478.466 161.992 478.33 161.698 478.139 161.441C477.111 160.074 477.456 155.404 477.456 155.404L475.882 145.639C473.378 153.928 470.191 163.911 469.14 164.635C468.632 164.939 468.215 165.375 467.934 165.897C467.653 166.418 467.518 167.006 467.544 167.599C469.025 169.419 468.457 177.283 468.457 177.283C468.457 177.283 468.457 199.042 467.389 200.524C466.32 202.005 464.242 206.561 464.242 206.561C464.242 206.561 470.346 211.994 465.545 214.734L465.494 214.763C460.595 217.497 450.459 209.869 450.459 209.869L451.515 208.812L451.826 208.502L450.677 206.675C449.5 204.625 454.123 200.753 454.123 200.753C454.123 200.753 452.894 195.968 453.347 195.739C453.801 195.509 454.123 191.178 454.123 191.178C454.123 191.178 453.003 175.456 453.457 173.98C453.524 173.633 453.51 173.276 453.416 172.935C453.323 172.594 453.152 172.28 452.917 172.016C452.296 171.124 451.989 170.051 452.044 168.966C452.144 168.029 451.876 167.089 451.297 166.346C449.93 164.864 451.297 158.483 451.297 158.483L452.446 150.05V136.621C452.445 134.046 452.912 131.492 453.824 129.085C454.512 127.129 454.929 125.088 455.064 123.019C455.438 118.699 457.758 114.5 459.32 112.105C460.147 110.842 460.761 110.083 460.761 110.083L497.211 108.653C497.211 108.653 497.786 110.279 498.36 112.536C498.486 113.03 498.613 113.547 498.727 114.093C499.491 117.597 499.951 121.933 498.406 124.38C498.19 124.709 497.998 125.052 497.832 125.408C495.747 129.849 497.171 135.426 497.171 135.426C497.171 135.426 495.351 148.063 494.552 150.125C493.978 151.578 494.506 153.606 494.863 154.663C495.031 155.171 495.119 155.702 495.121 156.237V160.723C495.121 160.723 496.034 164.48 495.58 165.508C495.127 166.536 496.361 169.385 496.361 169.385Z" fill="#444053"/>
<path opacity="0.1" d="M498.038 124.702C497.826 125.032 497.634 125.376 497.464 125.73L495.414 125.615C495.609 124.558 494.214 114.65 494.214 114.65L498.348 114.414C499.118 117.941 499.583 122.284 498.038 124.702Z" fill="black"/>
<path d="M498.377 124.386C498.161 124.714 497.969 125.058 497.803 125.414L495.747 125.299C495.948 124.242 494.552 114.328 494.552 114.328L498.681 114.098C499.463 117.602 499.922 121.939 498.377 124.386Z" fill="#444053"/>
<path opacity="0.05" d="M498.377 124.386C498.161 124.714 497.969 125.058 497.803 125.414L495.747 125.299C495.948 124.242 494.552 114.328 494.552 114.328L498.681 114.098C499.463 117.602 499.922 121.939 498.377 124.386Z" fill="black"/>
<path opacity="0.1" d="M492.341 216.888C492.194 217.146 491.966 217.348 491.692 217.463C490.165 218.106 484.525 215.251 481.315 213.499C480.911 213.283 480.606 212.919 480.465 212.483C482.291 212.15 483.492 214.206 483.492 214.206C483.797 214.014 484.137 213.885 484.493 213.827C484.849 213.769 485.212 213.783 485.563 213.868C485.913 213.953 486.242 214.108 486.532 214.323C486.821 214.538 487.065 214.809 487.247 215.119C488.815 217.417 492.175 216.452 492.175 216.452C492.175 216.452 492.244 216.607 492.341 216.888Z" fill="black"/>
<path d="M493.289 223.873C492.944 224.896 490.383 224.896 490.383 224.896C490.383 224.896 485.789 226.211 483.744 227.233C481.7 228.256 480.299 227.716 480.299 227.716C475.595 228.802 469.559 226.923 467.739 226.567C465.919 226.211 465.201 223.833 467.452 223.379C467.741 223.321 468.024 223.234 468.296 223.121C469.419 222.62 470.387 221.826 471.099 220.823C472.621 219.358 474.221 217.978 475.894 216.687C477.048 215.834 478.064 214.807 478.903 213.643C481.579 211.276 483.497 214.528 483.497 214.528C483.802 214.336 484.143 214.207 484.499 214.149C484.854 214.091 485.218 214.105 485.568 214.19C485.919 214.275 486.248 214.43 486.538 214.644C486.827 214.859 487.07 215.13 487.253 215.441C488.821 217.739 492.181 216.774 492.181 216.774C492.181 216.774 492.755 218.313 493.065 219.422C493.134 219.703 493.209 220.059 493.272 220.45C493.497 221.579 493.503 222.741 493.289 223.873Z" fill="#FF748F"/>
<path d="M485.456 216.67C485.63 216.67 485.772 216.529 485.772 216.354C485.772 216.18 485.63 216.038 485.456 216.038C485.281 216.038 485.14 216.18 485.14 216.354C485.14 216.529 485.281 216.67 485.456 216.67Z" fill="#575988"/>
<path d="M482.78 219.175C482.954 219.175 483.095 219.033 483.095 218.859C483.095 218.684 482.954 218.543 482.78 218.543C482.605 218.543 482.464 218.684 482.464 218.859C482.464 219.033 482.605 219.175 482.78 219.175Z" fill="#575988"/>
<path d="M480.057 221.426C480.232 221.426 480.373 221.285 480.373 221.11C480.373 220.936 480.232 220.794 480.057 220.794C479.883 220.794 479.742 220.936 479.742 221.11C479.742 221.285 479.883 221.426 480.057 221.426Z" fill="#575988"/>
<path d="M481.464 220.421C481.639 220.421 481.78 220.28 481.78 220.105C481.78 219.931 481.639 219.789 481.464 219.789C481.29 219.789 481.149 219.931 481.149 220.105C481.149 220.28 481.29 220.421 481.464 220.421Z" fill="#575988"/>
<path d="M484.175 217.842C484.349 217.842 484.491 217.7 484.491 217.526C484.491 217.352 484.349 217.21 484.175 217.21C484.001 217.21 483.859 217.352 483.859 217.526C483.859 217.7 484.001 217.842 484.175 217.842Z" fill="#575988"/>
<path d="M493.289 223.873C492.944 224.896 490.383 224.896 490.383 224.896C490.383 224.896 485.789 226.211 483.744 227.233C481.7 228.256 480.299 227.716 480.299 227.716C475.595 228.802 469.559 226.923 467.739 226.567C465.919 226.211 465.201 223.833 467.452 223.379C467.741 223.321 468.024 223.234 468.296 223.121C470.284 223.798 472.36 224.185 474.458 224.27C479.098 224.465 482.774 224.27 482.774 224.27L487.471 222.759C488.361 222.218 489.348 221.858 490.377 221.702C491.412 221.492 492.391 221.066 493.249 220.45C493.481 221.578 493.495 222.74 493.289 223.873Z" fill="#DCE6F2"/>
<path opacity="0.5" d="M481.596 226.82C481.334 226.82 481.072 226.793 480.815 226.739L480.884 226.406C481.84 226.555 482.819 226.419 483.698 226.016C484.118 225.849 484.537 225.654 484.945 225.441C485.352 225.229 485.921 224.982 486.426 224.792L486.891 224.631C487.15 224.545 487.408 224.459 487.655 224.35C487.799 224.292 487.937 224.224 488.074 224.16C488.409 223.984 488.764 223.849 489.131 223.758C489.321 223.722 489.513 223.697 489.705 223.684C489.879 223.672 490.051 223.651 490.222 223.62C490.565 223.537 490.896 223.414 491.21 223.253C491.547 223.081 491.904 222.95 492.272 222.862L492.525 222.816C492.793 222.81 493.052 222.715 493.26 222.546L493.507 222.782C493.248 223.007 492.92 223.138 492.577 223.155L492.341 223.195C491.999 223.279 491.667 223.402 491.354 223.563C491.016 223.735 490.659 223.866 490.291 223.954C490.102 223.991 489.91 224.014 489.717 224.023C489.538 224.036 489.359 224.059 489.183 224.091C488.843 224.178 488.515 224.305 488.206 224.471L487.776 224.666C487.512 224.775 487.247 224.867 486.983 224.953L486.53 225.114C486.036 225.298 485.548 225.527 485.071 225.746C484.594 225.964 484.238 226.142 483.807 226.32C483.108 226.624 482.358 226.793 481.596 226.82Z" fill="#575988"/>
<path opacity="0.1" d="M482.693 170.212C482.693 170.212 485.059 166.766 489.102 166.823C493.145 166.881 494.88 166.369 494.88 166.369C494.88 166.369 492.29 167.903 490.498 168.093C488.706 168.282 482.693 170.212 482.693 170.212Z" fill="black"/>
<path opacity="0.1" d="M484.06 171.011C484.06 171.011 486.197 169.529 487.42 169.471C488.643 169.414 489.717 169.299 489.717 169.299C489.144 169.703 488.51 170.011 487.839 170.212C486.794 170.499 484.06 171.011 484.06 171.011Z" fill="black"/>
<path opacity="0.1" d="M484.514 172.033C484.514 172.033 487.736 172.292 487.764 173.147L484.514 172.033Z" fill="black"/>
<path opacity="0.1" d="M454.553 124.001C454.72 124.03 457.591 121.009 457.792 119.814C457.952 119.06 458.402 118.4 459.044 117.976C459.044 117.976 460.899 118.717 459.245 120.986C457.591 123.254 454.553 124.001 454.553 124.001Z" fill="black"/>
<path opacity="0.1" d="M498.67 26.2889C498.015 27.8398 497.435 27.9547 497.562 29.4596C496.797 30.2665 495.919 30.9573 494.954 31.5103C492.916 32.7223 490.699 35.0888 488.161 35.0888C486.462 35.0924 484.779 34.7747 483.199 34.1525C482.797 30.9359 481.585 29.5573 481.585 29.5573C481.585 29.5573 501.645 19.2639 498.67 26.2889Z" fill="black"/>
<path d="M501.742 20.8206C501.742 23.5074 500.946 26.1338 499.453 28.3678C497.961 30.6018 495.84 32.343 493.358 33.3712C490.876 34.3994 488.145 34.6684 485.511 34.1443C482.876 33.6201 480.456 32.3263 478.557 30.4264C476.657 28.5266 475.364 26.106 474.84 23.4708C474.316 20.8356 474.585 18.1042 475.613 15.6219C476.64 13.1397 478.381 11.018 480.615 9.52531C482.848 8.0326 485.474 7.23587 488.161 7.23587C489.944 7.23512 491.711 7.58598 493.359 8.26841C495.007 8.95083 496.505 9.95145 497.766 11.2131C499.027 12.4747 500.028 13.9725 500.71 15.621C501.392 17.2696 501.743 19.0364 501.742 20.8206Z" fill="#CC818C"/>
<path opacity="0.1" d="M502.598 40.8386L498.245 47.3352C498.245 47.3352 477.651 57.1575 481.591 45.6119C483.314 40.5284 483.526 36.8063 483.216 34.233H483.25C483.494 35.0859 483.631 35.9657 483.658 36.8522C483.721 38.6214 483.767 40.8731 488.166 41.6083C495.5 42.8433 499.44 38.2538 500.129 37.352C500.833 38.5942 501.66 39.7623 502.598 40.8386Z" fill="black"/>
<path opacity="0.1" d="M415.927 13.2671L413.205 18.5574C412.34 18.4864 411.488 18.3089 410.666 18.029L410.431 17.7475C411.545 18.1726 415.301 11.0786 415.301 11.0786L415.421 11.1763C415.732 12.4113 415.927 13.2671 415.927 13.2671Z" fill="black"/>
<path opacity="0.1" d="M498.331 112.542C489.539 116.362 459.113 113.116 459.113 113.116C459.208 112.793 459.26 112.459 459.268 112.122C460.095 110.859 460.71 110.101 460.71 110.101L497.16 108.67C497.16 108.67 497.751 110.284 498.331 112.542Z" fill="black"/>
<path d="M483.268 34.5489L479.213 36.2721C478.6 36.2653 478.002 36.0846 477.487 35.7511C476.973 35.4176 476.564 34.945 476.307 34.3881C475.371 32.4236 472.04 34.3881 472.04 34.3881C472.04 34.3881 461.87 33.6184 458.114 35.5024C458.114 35.5024 452.049 32.9348 451.222 32.7682C450.396 32.6016 449.086 31.9124 448.489 32.0847C447.892 32.257 447.122 30.9703 446.697 31.0565C446.272 31.1427 446.094 30.2006 444.727 29.8617C443.361 29.5228 442.849 29.9479 441.31 28.4085C439.771 26.8691 427.303 20.8033 427.303 20.8033L421.664 16.2081L415.686 11.4233C415.686 11.4233 411.924 18.5115 410.816 18.0864L422.175 31.7573C422.175 31.7573 430.376 38.9373 436.015 41.2407C441.655 43.5441 441.224 44.2334 441.224 44.2334C441.224 44.2334 458.315 52.9471 460.962 52.7805C463.61 52.614 463.099 70.6388 461.985 73.5453C460.87 76.4518 459.084 97.4693 459.084 97.4693C459.084 97.4693 457.362 101.909 459.165 104.988C459.165 104.988 459.596 111.307 459.165 112.421C459.165 112.421 489.78 115.695 498.463 111.847C498.463 111.847 499.744 97.6646 498.463 95.8668C497.183 94.0689 499.664 90.0595 499.664 90.0595L505.091 77.8132L518.402 64.3893C518.402 64.3893 520.453 53.1941 511.316 46.0083L505.246 40.6261C505.246 40.6261 501.852 37.6909 500.864 37.5071C499.876 37.3233 500.238 37.5071 500.238 37.5071C500.238 37.5071 496.275 43.2511 488.178 41.907C483.779 41.166 483.733 38.9259 483.67 37.1509C483.642 36.2704 483.507 35.3965 483.268 34.5489Z" fill="#67647E"/>
<path opacity="0.1" d="M499.951 80.5473C499.951 80.5473 481.154 81.3171 477.398 87.2162C477.398 87.2162 482.268 84.9186 486.621 85.5906C490.975 86.2627 499.951 80.5473 499.951 80.5473Z" fill="black"/>
<path opacity="0.1" d="M479.19 101.151C479.19 101.151 488.074 101.726 489.958 99.8704C491.842 98.015 491.842 96.8835 491.842 96.8835L479.19 101.151Z" fill="black"/>
<path opacity="0.1" d="M501.742 62.4363C501.742 62.4363 494.225 71.3224 503.368 75.1651L501.742 62.4363Z" fill="black"/>
<path opacity="0.1" d="M457.235 45.2616C457.235 45.2616 459.969 50.8391 461.336 51.2124L457.235 45.2616Z" fill="black"/>
<path opacity="0.1" d="M448.012 42.8663C448.012 42.8663 454.846 49.0182 456.127 49.6155C456.127 49.6155 449.034 42.8663 448.012 42.8663Z" fill="black"/>
<path opacity="0.1" d="M475.262 36.9729C475.262 36.9729 468.681 46.7952 472.965 52.7806C472.93 52.7806 470.564 45.6866 475.262 36.9729Z" fill="black"/>
<path d="M491.842 111.399L489.832 113.289L489.55 113.553L487.224 115.753C487.052 115.879 486.891 116.005 486.725 116.12C477.249 122.916 475.348 112.593 475.348 112.593C475.348 112.593 471.162 115.328 470.564 113.105C469.967 110.882 480.327 107.723 481.838 107.895C481.975 107.909 482.114 107.909 482.251 107.895C482.998 107.77 483.717 107.515 484.376 107.142C484.531 107.062 484.686 106.982 484.835 106.895C485.363 106.601 485.875 106.279 486.369 105.93L491.842 111.399Z" fill="#CC818C"/>
<path opacity="0.1" d="M502.087 20.8206C502.087 23.1756 501.476 25.4904 500.312 27.5376C499.148 29.5849 497.472 31.2943 495.448 32.4982C495.261 32.1808 495.096 31.8507 494.954 31.5103C494.466 30.3614 494.168 29.1609 493.679 28.0236C493.128 26.7812 492.349 25.6531 491.382 24.6978C491.229 24.5126 491.031 24.3685 490.808 24.2785C490.588 24.249 490.364 24.2643 490.15 24.3235C489.936 24.3827 489.736 24.4846 489.562 24.6231C488.987 25.0153 488.344 25.2977 487.667 25.456C487.327 25.5325 486.974 25.5198 486.641 25.4192C486.308 25.3185 486.006 25.1333 485.766 24.8816C485.237 24.2498 485.312 23.3192 485.467 22.5093C485.795 20.7401 486.352 19.0054 486.352 17.2076C486.352 15.4097 485.674 13.4682 484.112 12.5778C482.734 11.7966 481.022 12.0034 479.489 11.5726C479.252 11.5095 479.019 11.4288 478.794 11.3314C480.681 9.39833 483.101 8.07156 485.745 7.52045C488.389 6.96934 491.137 7.2189 493.639 8.23727C496.14 9.25564 498.282 10.9966 499.79 13.2379C501.298 15.4792 502.103 18.1191 502.104 20.8206H502.087Z" fill="black"/>
<path d="M477.858 9.17164C477.611 9.30375 477.341 9.53926 477.416 9.81497C477.461 9.9443 477.548 10.0552 477.663 10.1309C478.295 10.6431 479.026 11.0187 479.81 11.2338C481.344 11.6473 483.061 11.452 484.439 12.239C485.995 13.1293 486.685 15.065 486.679 16.8629C486.673 18.6608 486.105 20.4013 485.789 22.1647C485.639 22.9804 485.559 23.8879 486.093 24.5427C486.334 24.7935 486.635 24.9781 486.968 25.0787C487.301 25.1793 487.654 25.1925 487.994 25.1172C488.67 24.9608 489.31 24.6804 489.883 24.29C490.057 24.1509 490.257 24.0486 490.471 23.9894C490.685 23.9301 490.909 23.9152 491.13 23.9454C491.363 24.0311 491.572 24.1732 491.738 24.3589C492.707 25.3146 493.487 26.445 494.035 27.6905C494.529 28.8393 494.828 30.0341 495.31 31.1771C495.739 32.3522 496.548 33.3507 497.608 34.0147C498.143 34.3379 498.769 34.4774 499.391 34.4121C500.013 34.3468 500.597 34.0802 501.053 33.6528C501.846 32.7797 501.823 31.4586 502.202 30.3385C502.879 28.4028 504.775 27.185 505.958 25.5135C507.29 23.6352 507.681 21.2629 508.019 18.9882C508.177 18.2703 508.189 17.528 508.054 16.8055C507.897 16.3278 507.695 15.8662 507.451 15.4269C506.13 12.6927 506.159 9.25205 504.051 7.06356C502.466 5.42651 500.065 4.92678 497.803 4.65106C495.54 4.37535 493.168 4.20302 491.227 3.014C490.683 2.6024 490.084 2.26978 489.447 2.02602C489.124 1.91381 488.773 1.91784 488.453 2.03741C488.133 2.15698 487.865 2.38458 487.695 2.68085C487.655 2.856 487.575 3.01929 487.46 3.15761C487.36 3.21554 487.247 3.24933 487.132 3.2563C487.016 3.26328 486.9 3.24326 486.794 3.19781L483.784 2.3879L484.129 3.90433C483.036 3.94778 481.946 3.75174 480.936 3.32992C480.879 4.18579 481.843 4.74297 482.142 5.54139C482.251 5.90789 482.255 6.29753 482.153 6.66609C482.052 7.03465 481.849 7.36737 481.568 7.62648C480.454 8.71211 479.087 8.49958 477.858 9.17164Z" fill="#585268"/>
<path opacity="0.1" d="M465.666 213.333L465.545 214.7L465.494 214.729C460.595 217.463 450.459 209.835 450.459 209.835L451.515 208.778C451.688 208.97 451.818 209.196 451.897 209.441C451.976 209.687 452.002 209.946 451.975 210.202L454.048 210.317L456.523 212.994C456.523 212.994 463.225 213.769 465.04 213.333H465.666Z" fill="black"/>
<path d="M464.81 220.771C461.623 221.478 450.453 221.426 450.453 221.426L444.216 222.42C444.216 222.42 433.483 223.448 432.288 220.122C431.094 216.796 433.224 216.992 433.224 216.992H433.305L437.773 216.63C437.773 216.63 443.441 214.436 445.52 212.925C447.161 211.648 448.712 210.259 450.16 208.766C450.16 208.766 452.026 208.404 451.992 210.564L454.065 210.679L456.54 213.35C456.54 213.35 463.242 214.131 465.057 213.695H465.683L465.396 216.998L465.476 217.101C465.873 217.612 467.659 220.134 464.81 220.771Z" fill="#FF748F"/>
<path d="M453.244 212.787C453.418 212.787 453.56 212.646 453.56 212.471C453.56 212.297 453.418 212.155 453.244 212.155C453.069 212.155 452.928 212.297 452.928 212.471C452.928 212.646 453.069 212.787 453.244 212.787Z" fill="#575988"/>
<path d="M445.215 216.274C445.39 216.274 445.531 216.132 445.531 215.958C445.531 215.783 445.39 215.642 445.215 215.642C445.041 215.642 444.9 215.783 444.9 215.958C444.9 216.132 445.041 216.274 445.215 216.274Z" fill="#575988"/>
<path d="M441.081 217.532C441.255 217.532 441.396 217.39 441.396 217.216C441.396 217.041 441.255 216.9 441.081 216.9C440.906 216.9 440.765 217.041 440.765 217.216C440.765 217.39 440.906 217.532 441.081 217.532Z" fill="#575988"/>
<path d="M447.323 215.607C447.498 215.607 447.639 215.466 447.639 215.292C447.639 215.117 447.498 214.976 447.323 214.976C447.149 214.976 447.007 215.117 447.007 215.292C447.007 215.466 447.149 215.607 447.323 215.607Z" fill="#575988"/>
<path d="M443.142 216.906C443.317 216.906 443.458 216.764 443.458 216.59C443.458 216.415 443.317 216.274 443.142 216.274C442.968 216.274 442.826 216.415 442.826 216.59C442.826 216.764 442.968 216.906 443.142 216.906Z" fill="#575988"/>
<path d="M449.454 214.619C449.628 214.619 449.769 214.478 449.769 214.304C449.769 214.129 449.628 213.988 449.454 213.988C449.279 213.988 449.138 214.129 449.138 214.304C449.138 214.478 449.279 214.619 449.454 214.619Z" fill="#575988"/>
<path d="M451.561 213.706C451.736 213.706 451.877 213.565 451.877 213.39C451.877 213.216 451.736 213.074 451.561 213.074C451.387 213.074 451.245 213.216 451.245 213.39C451.245 213.565 451.387 213.706 451.561 213.706Z" fill="#575988"/>
<path d="M464.81 220.771C461.623 221.478 450.453 221.426 450.453 221.426L444.216 222.42C444.216 222.42 433.483 223.448 432.288 220.122C431.094 216.796 433.224 216.992 433.224 216.992H433.305C433.988 217.876 435.361 218.887 438.06 218.933L445.778 219.249L453.778 218.675C453.778 218.675 461.244 218.445 462.49 218.192C463.516 217.915 464.515 217.548 465.476 217.095C465.873 217.612 467.659 220.134 464.81 220.771Z" fill="#DCE6F2"/>
<path opacity="0.5" d="M444.79 221.667C444.364 221.669 443.94 221.617 443.527 221.512L443.642 221.202C444.697 221.432 445.794 221.383 446.823 221.059C447.202 220.961 447.576 220.852 447.972 220.737C449.752 220.13 451.643 219.917 453.514 220.111H453.761C457.185 220.293 460.618 220.139 464.012 219.651C464.818 219.598 465.586 219.29 466.206 218.772L466.453 219.014C465.781 219.583 464.947 219.925 464.069 219.99C460.647 220.479 457.185 220.633 453.732 220.45H453.491C452.359 220.367 451.222 220.4 450.097 220.547C449.408 220.677 448.727 220.848 448.058 221.059C447.679 221.173 447.3 221.288 446.91 221.386C446.218 221.568 445.506 221.663 444.79 221.667Z" fill="#575988"/>
<path opacity="0.1" d="M491.842 111.399L489.832 113.289L484.835 106.895C485.363 106.601 485.875 106.279 486.369 105.93L491.842 111.399Z" fill="black"/>
<path d="M514.474 58.9324L518.403 64.4008V70.1448C518.403 70.1448 520.2 76.2163 518.403 82.282L518.604 87.5781C518.604 87.5781 516.697 92.449 517.38 93.6438C517.38 93.6438 517.036 97.2338 512.424 99.7153C507.813 102.197 502.598 108.044 502.598 108.044C502.598 108.044 500.634 111.807 495.339 110.951L490.297 113.087L484.491 105.655L492.347 101.381C492.347 101.381 495.081 97.7048 496.706 97.8772L503.368 90.1169C503.368 90.1169 503.54 87.6413 505.246 87.6413C505.246 87.6413 502.087 85.0794 503.195 83.54C504.304 82.0006 503.368 75.1651 503.368 75.1651L514.474 58.9324Z" fill="#67647E"/>
<path opacity="0.1" d="M507.129 83.8789C507.129 83.8789 516.1 83.7123 517.208 86.0157C518.316 88.319 509.863 82.598 507.129 83.8789Z" fill="black"/>
<path opacity="0.1" d="M489.585 113.105C489.588 113.255 489.576 113.405 489.55 113.553C489.447 114.241 489.109 114.872 488.595 115.34C488.08 115.807 487.419 116.083 486.725 116.12H486.564C485.764 116.12 484.998 115.803 484.432 115.237C483.867 114.672 483.549 113.904 483.549 113.105C483.551 112.77 483.607 112.439 483.716 112.122C482.291 110.974 482.217 108.917 482.251 107.889C482.998 107.764 483.717 107.509 484.376 107.137C484.748 108.205 485.248 109.226 485.863 110.175C486.093 110.118 486.328 110.089 486.564 110.089C486.96 110.088 487.353 110.166 487.72 110.317C488.086 110.468 488.419 110.69 488.7 110.97C488.98 111.25 489.203 111.583 489.355 111.949C489.507 112.316 489.585 112.708 489.585 113.105Z" fill="black"/>
<path d="M484.646 106.47C484.646 106.47 482.624 106.924 482.624 107.292C482.624 107.659 482.171 110.997 484.387 112.364C486.604 113.731 486.386 110.457 486.386 110.457C486.386 110.457 484.474 107.521 484.646 106.47Z" fill="#575988"/>
<path d="M486.909 116.126C488.577 116.126 489.929 114.773 489.929 113.105C489.929 111.436 488.577 110.083 486.909 110.083C485.24 110.083 483.888 111.436 483.888 113.105C483.888 114.773 485.24 116.126 486.909 116.126Z" fill="#E4AAB4"/>
<path d="M486.909 115.695C488.339 115.695 489.499 114.535 489.499 113.105C489.499 111.674 488.339 110.514 486.909 110.514C485.478 110.514 484.319 111.674 484.319 113.105C484.319 114.535 485.478 115.695 486.909 115.695Z" fill="#DCE6F2"/>
<path opacity="0.1" d="M475.147 114.271C475.147 114.271 481.528 119.567 489.728 116.212V118.774C489.728 118.774 484.261 122.531 479.305 120.256C474.349 117.981 475.147 114.271 475.147 114.271Z" fill="black"/>
<path opacity="0.1" d="M475.147 113.587C475.147 113.587 481.545 118.883 489.728 115.511V118.073C489.728 118.073 484.261 121.83 479.305 119.555C474.349 117.281 475.147 113.587 475.147 113.587Z" fill="black"/>
<path d="M475.147 113.587C475.147 113.587 481.545 118.883 489.728 115.511V118.073C489.728 118.073 484.261 121.83 479.305 119.555C474.349 117.281 475.147 113.587 475.147 113.587Z" fill="#444053"/>
<path opacity="0.05" d="M475.32 113.587C475.32 113.587 481.7 118.883 489.901 115.529V118.091C489.901 118.091 484.416 121.83 479.477 119.573C474.539 117.315 475.32 113.587 475.32 113.587Z" fill="black"/>
<path opacity="0.1" d="M455.128 208.749C455.128 208.749 463.673 210.317 464.925 210.656C466.177 210.995 464.58 211.598 464.58 211.598C464.58 211.598 456.753 210.202 455.128 208.749Z" fill="black"/>
<path opacity="0.1" d="M454.904 204.223C455.042 204.223 460.71 202.626 461.933 199.892L454.904 204.223Z" fill="black"/>
<path opacity="0.1" d="M463.168 171.522C463.168 171.522 465.465 174.543 466.946 174.457C468.428 174.371 464.517 171.407 463.168 171.522Z" fill="black"/>
<path opacity="0.1" d="M464.443 176.536C464.443 176.536 465.407 178.673 466.832 177.99L464.443 176.536Z" fill="black"/>
<path opacity="0.05" d="M469.824 129.625L475.882 145.605C475.882 145.605 476.738 135.323 474.929 132.244C474.416 131.366 473.663 130.653 472.758 130.189C471.854 129.725 470.836 129.529 469.824 129.625Z" fill="black"/>
<g opacity="0.1">
<rect width="28.9839" height="32.0493" fill="black" fill-opacity="0" transform="translate(477.341 2.51425)"/>
<path opacity="0.1" d="M484.738 3.0025L484.686 2.77274L483.71 2.51425L483.819 2.99101C484.125 3.01498 484.432 3.01882 484.738 3.0025Z" fill="black"/>
<path opacity="0.1" d="M482.062 6.84528L482.165 6.75337C482.446 6.49515 482.648 6.16343 482.75 5.79587C482.851 5.42832 482.848 5.03966 482.739 4.67402C482.622 4.39104 482.459 4.12913 482.257 3.89857C481.776 3.80723 481.304 3.66871 480.85 3.485C480.793 4.34087 481.757 4.8923 482.056 5.69646C482.189 6.06747 482.191 6.47295 482.062 6.84528Z" fill="black"/>
<path opacity="0.1" d="M498.199 33.1129C497.14 32.4476 496.332 31.4495 495.902 30.2753C495.414 29.1265 495.121 27.9202 494.627 26.7887C494.079 25.5443 493.3 24.4156 492.33 23.4628C492.168 23.2737 491.961 23.1294 491.727 23.0435C491.507 23.013 491.283 23.0278 491.068 23.0871C490.854 23.1463 490.654 23.2488 490.481 23.3882C489.905 23.7783 489.263 24.0605 488.586 24.2211C488.246 24.2942 487.894 24.2799 487.561 24.1794C487.229 24.0789 486.927 23.8956 486.685 23.6467C486.156 23.0148 486.231 22.0843 486.386 21.2744C486.719 19.5052 487.271 17.7647 487.276 15.9668C487.282 14.169 486.593 12.2332 485.031 11.3716C483.653 10.5847 481.941 10.7972 480.437 10.3664C479.652 10.1526 478.92 9.7769 478.289 9.26353L478.168 9.15439C478.04 9.20668 477.916 9.26613 477.795 9.33246C477.548 9.46457 477.284 9.70008 477.353 9.97005C477.402 10.1006 477.49 10.2128 477.605 10.2917C478.238 10.8011 478.969 11.1745 479.753 11.3888C481.286 11.8081 482.998 11.6128 484.376 12.3998C485.938 13.2844 486.622 15.2259 486.622 16.995C486.622 18.7642 486.047 20.5334 485.731 22.2968C485.576 23.1067 485.502 24.02 486.03 24.6691C486.271 24.9204 486.572 25.1052 486.905 25.2059C487.238 25.3065 487.592 25.3195 487.931 25.2435C488.608 25.0848 489.25 24.8045 489.826 24.4164C490 24.2774 490.2 24.1748 490.414 24.1146C490.628 24.0544 490.852 24.0379 491.072 24.066C491.294 24.158 491.491 24.3018 491.647 24.4853C492.614 25.4401 493.393 26.5683 493.944 27.8111C494.438 28.9599 494.731 30.1604 495.219 31.2977C495.642 32.4851 496.451 33.4964 497.516 34.1698C498.601 34.7442 500.106 34.7442 500.962 33.8079C501.183 33.5567 501.357 33.2665 501.473 32.952C501.005 33.3022 500.444 33.5046 499.861 33.5333C499.277 33.5619 498.699 33.4155 498.199 33.1129Z" fill="black"/>
<path opacity="0.1" d="M503.104 28.7761C503.959 27.6962 505.079 26.7772 505.883 25.6398C506.042 25.414 506.19 25.1801 506.325 24.9391C505.292 26.2545 503.873 27.3171 503.104 28.7761Z" fill="black"/>
</g>
<g opacity="0.1">
<rect width="150.072" height="116.335" fill="black" fill-opacity="0" transform="translate(309.443 12.6353)"/>
<path opacity="0.1" d="M452.423 12.6353H316.547C314.665 12.6398 312.861 13.3891 311.53 14.7194C310.199 16.0497 309.449 17.8529 309.443 19.735V105.603C309.449 107.485 310.199 109.288 311.53 110.618C312.861 111.949 314.665 112.698 316.547 112.703H423.134C423.134 112.703 425.896 127.367 416.817 128.941C416.817 128.941 437.135 130.4 433.586 112.703H452.417C454.298 112.698 456.101 111.949 457.431 110.618C458.761 109.288 459.511 107.484 459.515 105.603V19.735C459.511 17.8544 458.762 16.0521 457.433 14.7218C456.104 13.3915 454.303 12.6414 452.423 12.6353Z" fill="black"/>
<g opacity="0.2">
<rect width="110.068" height="36.6931" fill="black" fill-opacity="0" transform="translate(329.445 35.4277)"/>
<path opacity="0.2" d="M436.257 35.4277H332.701C330.903 35.4277 329.445 36.8859 329.445 38.6846V38.8799C329.445 40.6786 330.903 42.1368 332.701 42.1368H436.257C438.055 42.1368 439.513 40.6786 439.513 38.8799V38.6846C439.513 36.8859 438.055 35.4277 436.257 35.4277Z" fill="black"/>
<path opacity="0.2" d="M417.012 65.4117H332.701C330.903 65.4117 329.445 66.8699 329.445 68.6686V68.8639C329.445 70.6626 330.903 72.1208 332.701 72.1208H417.012C418.811 72.1208 420.268 70.6626 420.268 68.8639V68.6686C420.268 66.8699 418.811 65.4117 417.012 65.4117Z" fill="black"/>
<path opacity="0.2" d="M391.571 50.4197H332.701C330.903 50.4197 329.445 51.8779 329.445 53.6766V53.8719C329.445 55.6706 330.903 57.1288 332.701 57.1288H391.571C393.37 57.1288 394.828 55.6706 394.828 53.8719V53.6766C394.828 51.8779 393.37 50.4197 391.571 50.4197Z" fill="black"/>
</g>
</g>
<path d="M454.197 11.4463H318.321C316.439 11.4523 314.636 12.2029 313.305 13.5341C311.974 14.8653 311.223 16.6691 311.217 18.5517V104.42C311.223 106.302 311.974 108.105 313.305 109.435C314.636 110.766 316.439 111.515 318.321 111.519H424.909C424.909 111.519 427.671 126.184 418.592 127.758C418.592 127.758 438.91 129.217 435.361 111.519H454.192C456.073 111.515 457.875 110.765 459.206 109.435C460.536 108.104 461.285 106.301 461.29 104.42V18.5517C461.285 16.6706 460.537 14.8677 459.208 13.5365C457.879 12.2053 456.078 11.4539 454.197 11.4463Z" fill="white"/>
<g opacity="0.2">
<rect width="110.068" height="36.6988" fill="black" fill-opacity="0" transform="translate(331.22 34.2387)"/>
<path opacity="0.2" d="M438.031 34.2387H334.476C332.677 34.2387 331.22 35.6969 331.22 37.4956V37.6909C331.22 39.4896 332.677 40.9478 334.476 40.9478H438.031C439.829 40.9478 441.287 39.4896 441.287 37.6909V37.4956C441.287 35.6969 439.829 34.2387 438.031 34.2387Z" fill="#C3002F"/>
<path opacity="0.2" d="M418.787 64.2285H334.476C332.678 64.2285 331.22 65.6866 331.22 67.4854V67.6807C331.22 69.4794 332.678 70.9375 334.476 70.9375H418.787C420.585 70.9375 422.043 69.4794 422.043 67.6807V67.4854C422.043 65.6866 420.585 64.2285 418.787 64.2285Z" fill="#C3002F"/>
<path opacity="0.2" d="M393.346 49.2365H334.476C332.678 49.2365 331.22 50.6946 331.22 52.4934V52.6887C331.22 54.4874 332.678 55.9455 334.476 55.9455H393.346C395.144 55.9455 396.602 54.4874 396.602 52.6887V52.4934C396.602 50.6946 395.144 49.2365 393.346 49.2365Z" fill="#C3002F"/>
</g>
<path d="M26.8192 292.13C26.8192 292.13 28.8636 294.807 25.8716 298.85C22.8796 302.894 20.4101 306.318 21.4094 308.828C21.4094 308.828 25.9233 301.32 29.5987 301.217C33.2741 301.114 30.8621 296.645 26.8192 292.13Z" fill="#C3002F"/>
<path opacity="0.1" d="M26.8192 292.13C26.9952 292.389 27.1344 292.671 27.2327 292.969C30.8219 297.185 32.7286 301.114 29.2829 301.217C26.0726 301.309 22.2249 307.047 21.3003 308.5C21.3003 308.61 21.3692 308.719 21.4094 308.828C21.4094 308.828 25.9233 301.32 29.5987 301.217C33.2741 301.114 30.8621 296.645 26.8192 292.13Z" fill="black"/>
<path d="M30.6209 295.542C30.6209 296.484 30.5176 297.265 30.3855 297.265C30.2534 297.265 30.15 296.501 30.15 295.542C30.15 294.583 30.2821 295.042 30.4142 295.042C30.5463 295.042 30.6209 294.6 30.6209 295.542Z" fill="#FFD037"/>
<path d="M31.9303 296.668C31.1033 297.121 30.3797 297.391 30.3166 297.277C30.2534 297.162 30.8909 296.702 31.7006 296.254C32.5103 295.806 32.206 296.133 32.2749 296.254C32.3438 296.375 32.7573 296.22 31.9303 296.668Z" fill="#FFD037"/>
<path d="M15.9996 292.13C15.9996 292.13 13.9552 294.807 16.9472 298.85C19.9392 302.894 22.4086 306.318 21.4094 308.828C21.4094 308.828 16.8955 301.32 13.2201 301.217C9.54464 301.114 11.9566 296.645 15.9996 292.13Z" fill="#C3002F"/>
<path opacity="0.1" d="M15.9996 292.13C15.8236 292.389 15.6844 292.671 15.5861 292.969C11.9968 297.185 10.0902 301.114 13.5359 301.217C16.7462 301.309 20.5939 307.047 21.5185 308.5C21.4898 308.61 21.4496 308.719 21.4094 308.828C21.4094 308.828 16.8955 301.32 13.2201 301.217C9.54464 301.114 11.9566 296.645 15.9996 292.13Z" fill="black"/>
<path d="M12.1978 295.542C12.1978 296.484 12.3012 297.265 12.4333 297.265C12.5654 297.265 12.6688 296.501 12.6688 295.542C12.6688 294.583 12.5367 295.042 12.4046 295.042C12.2725 295.042 12.1978 294.6 12.1978 295.542Z" fill="#FFD037"/>
<path d="M10.8885 296.668C11.7154 297.121 12.439 297.391 12.5022 297.277C12.5654 297.162 11.9279 296.702 11.1182 296.254C10.3084 295.806 10.6128 296.133 10.5439 296.254C10.475 296.375 10.0558 296.22 10.8885 296.668Z" fill="#FFD037"/>
<path opacity="0.1" d="M21.4094 329.317C33.2335 329.317 42.8188 327.846 42.8188 326.031C42.8188 324.217 33.2335 322.746 21.4094 322.746C9.58531 322.746 0 324.217 0 326.031C0 327.846 9.58531 329.317 21.4094 329.317Z" fill="#C3002F"/>
<path d="M32.4529 305.221L32.3496 306.053L32.206 307.237L32.1428 307.731L31.9992 308.908L31.9418 309.402L31.7982 310.586L30.1558 324.021C30.0122 325.221 28.0539 326.158 25.6878 326.158H17.1539C14.7879 326.158 12.8353 325.221 12.686 324.021L11.0435 310.591L10.9 309.408L10.8425 308.914L10.699 307.737L10.6358 307.243L10.4922 306.059L10.3888 305.226C10.3084 304.549 11.3709 303.974 12.686 303.974H30.0926C31.4479 303.968 32.5104 304.543 32.4529 305.221Z" fill="#65617D"/>
<path d="M32.3208 306.053L32.1773 307.237H10.6358L10.4922 306.053H32.3208Z" fill="#9D9CB5"/>
<path d="M32.1198 307.731L31.9763 308.908H10.8425L10.6932 307.731H32.1198Z" fill="#9D9CB5"/>
<path d="M31.9131 309.402L31.7695 310.586H11.0435L10.9 309.402H31.9131Z" fill="#9D9CB5"/>
<path opacity="0.1" d="M351.096 435.818C377.751 435.818 399.359 432.271 399.359 427.897C399.359 423.522 377.751 419.975 351.096 419.975C324.441 419.975 302.833 423.522 302.833 427.897C302.833 432.271 324.441 435.818 351.096 435.818Z" fill="#C3002F"/>
<g opacity="0.1">
<rect width="162.632" height="126.074" fill="black" fill-opacity="0" transform="translate(252.06 184.647)"/>
<path opacity="0.1" d="M406.997 184.647H259.755C257.716 184.653 255.762 185.466 254.321 186.908C252.879 188.35 252.066 190.305 252.06 192.344V285.398C252.066 287.437 252.879 289.392 254.321 290.834C255.762 292.276 257.716 293.089 259.755 293.095H375.262C375.262 293.095 378.254 308.983 368.422 310.689C368.422 310.689 390.434 312.269 386.587 293.095H406.997C409.036 293.089 410.99 292.276 412.431 290.834C413.873 289.392 414.686 287.437 414.692 285.398V192.344C414.686 190.305 413.873 188.35 412.431 186.908C410.99 185.466 409.036 184.653 406.997 184.647Z" fill="black"/>
<g opacity="0.2">
<rect width="119.279" height="23.5219" fill="black" fill-opacity="0" transform="translate(273.734 225.596)"/>
<path opacity="0.2" d="M389.757 241.846H276.99C275.191 241.846 273.734 243.304 273.734 245.103V245.861C273.734 247.66 275.191 249.118 276.99 249.118H389.757C391.555 249.118 393.013 247.66 393.013 245.861V245.103C393.013 243.304 391.555 241.846 389.757 241.846Z" fill="black"/>
<path opacity="0.2" d="M322.198 225.596H276.99C275.191 225.596 273.734 227.055 273.734 228.853V229.611C273.734 231.41 275.191 232.868 276.99 232.868H322.198C323.996 232.868 325.454 231.41 325.454 229.611V228.853C325.454 227.055 323.996 225.596 322.198 225.596Z" fill="black"/>
</g>
</g>
<path d="M405.739 183.366H258.469C256.43 183.372 254.476 184.185 253.034 185.627C251.592 187.069 250.78 189.024 250.774 191.063V284.117C250.78 286.156 251.592 288.111 253.034 289.553C254.476 290.995 256.43 291.808 258.469 291.814H373.975C373.975 291.814 376.967 307.702 367.135 309.414C367.135 309.414 389.154 310.993 385.306 291.814H405.739C407.778 291.808 409.732 290.995 411.174 289.553C412.616 288.111 413.428 286.156 413.434 284.117V191.063C413.428 189.024 412.616 187.069 411.174 185.627C409.732 184.185 407.778 183.372 405.739 183.366Z" fill="white"/>
<g opacity="0.2">
<rect width="119.279" height="23.5219" fill="black" fill-opacity="0" transform="translate(272.453 224.315)"/>
<path opacity="0.2" d="M388.476 240.565H275.709C273.911 240.565 272.453 242.024 272.453 243.822V244.581C272.453 246.379 273.911 247.837 275.709 247.837H388.476C390.274 247.837 391.732 246.379 391.732 244.581V243.822C391.732 242.024 390.274 240.565 388.476 240.565Z" fill="#C3002F"/>
<path opacity="0.2" d="M320.917 224.315H275.709C273.911 224.315 272.453 225.774 272.453 227.572V228.331C272.453 230.129 273.911 231.587 275.709 231.587H320.917C322.715 231.587 324.173 230.129 324.173 228.331V227.572C324.173 225.774 322.715 224.315 320.917 224.315Z" fill="#C3002F"/>
</g>
<path d="M378.868 422.509C378.173 419.562 377.72 416.971 377.72 416.971C377.72 416.971 377.88 413.76 376.439 411.348V410.544V404.61C376.848 403.533 377.349 402.493 377.938 401.503C379.006 399.636 377.938 392.8 377.938 392.8C377.938 392.8 373.975 383.162 374.94 377.05C375.905 370.938 366.802 349.898 366.802 349.898C366.858 347.869 367.146 345.853 367.658 343.89C367.753 343.477 367.792 343.054 367.773 342.632C367.776 342.58 367.776 342.528 367.773 342.477C367.773 342.477 367.773 342.511 367.773 342.528C367.635 338.507 364.448 330.937 364.448 330.937L364.879 316.536C364.879 316.536 366.912 308.041 363.592 296.639C362.444 292.664 361.691 289.476 361.22 287.023C361.169 286.742 361.117 286.449 361.071 286.219C367.905 285.18 373.131 284.312 373.131 284.312C373.131 284.312 369.18 267.729 366.504 264.857C363.828 261.985 361.691 252.795 361.691 252.795C361.691 252.795 360.296 241.082 362.547 237.665C364.798 234.247 365.114 228.342 365.114 228.342C365.114 228.342 370.283 224.608 370.897 222.954C371.512 221.3 372.62 217.566 372.62 215.596C372.62 213.626 371.977 211.862 372.189 210.828C372.402 209.794 370.69 205.854 371.546 203.987C371.77 203.414 371.887 202.805 371.891 202.189C371.891 202.189 371.891 202.155 371.891 202.138C371.896 200.507 371.744 198.88 371.437 197.278C369.953 196.024 368.221 195.099 366.354 194.561L366.24 194.113L365.952 192.964C365.78 192.849 365.614 192.752 365.447 192.66V192.235L365.395 190.552L366.205 186.772C367.784 180.19 359.004 179.207 359.004 179.207C358.473 178.198 357.587 177.422 356.517 177.03C354.748 176.41 356.224 186.927 357.051 187.599C357.671 188.105 359.589 191.402 360.497 193.022L360.646 193.292C360.5 193.419 360.365 193.56 360.244 193.711L360.577 196.009L360.629 196.359C360.048 197.083 359.576 197.888 359.228 198.749C359.228 198.749 360.836 200.512 360.514 202.482C360.192 204.452 361.002 206.905 361.042 207.037C360.95 206.928 359.819 205.705 358.694 206.003C357.568 206.302 354.409 207.25 354.409 207.25C354.409 207.25 352.055 207.663 352.273 208.18C352.491 208.697 350.665 210.978 350.665 210.978L344.348 204.981C344.29 204.803 344.221 204.625 344.164 204.435C343.895 203.579 343.703 202.701 343.59 201.81C344.278 201.644 344.953 201.429 345.611 201.167C346.266 200.936 346.857 200.552 347.334 200.047C347.972 199.289 348.092 198.26 348.351 197.318C348.856 195.475 349.93 193.832 350.699 192.08C352.004 189.129 352.442 185.867 351.963 182.677C351.862 181.696 351.53 180.752 350.992 179.925C349.959 178.501 348.086 177.926 346.72 176.789C345.353 175.652 344.48 173.917 342.895 173.073C341.459 172.303 339.708 172.395 338.088 172.659C334.924 173.182 331.884 174.288 329.124 175.922C328.199 176.467 327.188 177.099 326.126 176.91C325.218 176.743 324.552 176.014 323.961 175.319C323.961 175.29 323.961 175.261 323.989 175.232L323.92 175.152C323.272 176.63 322.952 178.231 322.984 179.845C322.984 180.098 322.984 180.35 323.013 180.603V180.867C323.013 180.942 323.013 181.017 323.013 181.086C323.015 181.2 322.999 181.315 322.967 181.425C322.838 181.747 322.642 182.039 322.393 182.28C322.198 182.497 322.025 182.731 321.876 182.981C321.9 182.893 321.928 182.807 321.962 182.723C321.558 183.313 321.331 184.007 321.307 184.722C321.271 185.24 321.44 185.752 321.778 186.146C322.095 186.456 322.442 186.735 322.812 186.979C322.372 189.407 322.686 191.911 323.713 194.154C324.74 196.397 326.43 198.271 328.555 199.524C328.63 199.702 328.704 199.886 328.773 200.07C329.583 202.201 330.192 204.665 329.922 206.963C329.922 207.135 329.876 207.302 329.841 207.468C329.807 207.635 329.686 207.64 329.617 207.732C329.617 207.732 319.171 207.836 316.707 205.607C314.244 203.378 310.499 211.047 310.499 211.047C310.499 211.047 306.755 211.77 306.008 211.047C305.262 210.323 300.869 210.943 300.869 210.943C299.08 209.356 296.757 208.507 294.368 208.565C292.906 207.454 291.293 206.556 289.578 205.9L289.463 205.86C288.71 205.586 287.906 205.484 287.109 205.561C287.109 205.561 281.969 201.31 280.47 199.036C278.971 196.761 271.856 188.3 271.804 188.26V187.852L271.724 186.617C271.513 186.653 271.3 186.672 271.086 186.675C271.046 186.554 271 186.41 270.943 186.25C270.531 185.049 270.024 183.883 269.426 182.763C269.426 182.763 269.426 181.212 269.88 180.821C270.334 180.431 269.691 174.733 269.691 174.733C269.691 174.733 265.062 163.905 260.916 171.987C260.916 171.987 253.076 177.22 259.658 183.309C259.658 183.309 262.282 184.578 262.65 185.606C262.897 186.261 263.798 188.088 264.373 189.3L264.643 189.845L264.568 189.909L264.666 190.925L264.706 191.316C263.465 192.022 262.627 192.717 262.828 193.246C263.194 194.143 263.446 195.083 263.58 196.043C263.58 196.043 272.642 207.416 273.82 212.299C273.82 212.299 298.221 226.803 306.25 227.837L304.86 235.091C304.652 237.053 304.545 239.024 304.538 240.996C304.642 242.553 303.573 249.612 303.573 249.612C303.573 249.612 302.184 259.952 301.006 261.422C299.829 262.893 300.07 269.079 300.07 269.079C299.787 272.055 299.249 275.001 298.462 277.885C297.314 281.825 298.141 286.696 298.141 286.696C298.141 286.696 294.075 296.019 303.815 289.7C303.815 289.7 308.598 289.401 314.106 289.212C314.106 289.396 314.106 289.574 314.106 289.786C314.106 290.493 314.106 291.262 314.071 292.084C313.997 297.426 313.968 304.784 314.209 310.356C314.64 320.195 317.655 339.679 317.655 339.679V349.444C317.464 350.364 317.369 351.302 317.374 352.241C317.308 355.692 318.222 359.09 320.01 362.041L320.762 368.566C320.762 368.566 322.519 372.868 322.554 375.459C322.545 375.669 322.52 375.879 322.479 376.085C322.413 376.414 322.384 376.749 322.393 377.085C322.295 380.048 324.081 387.137 324.081 387.137C324.081 387.137 324.185 394.288 325.23 394.702C326.143 395.058 324.007 398.826 323.369 399.906C323.369 399.837 323.369 399.768 323.329 399.699L323.197 399.917C322.976 400.493 322.863 401.104 322.864 401.721C322.804 402.21 322.883 402.706 323.094 403.151C323.304 403.596 323.637 403.973 324.053 404.237C326.086 405.477 327.177 406.534 325.448 406.931C324.814 407.03 324.185 407.162 323.564 407.327L323.473 407.086C323.231 407.184 323.03 407.361 322.903 407.589C322.775 407.817 322.729 408.081 322.772 408.338C322.784 409.186 323.003 410.018 323.409 410.762C325.132 414.599 326.281 416.046 326.281 416.046L327.108 415.955C326.983 416.267 326.823 416.563 326.631 416.839C326.319 417.289 325.904 417.658 325.419 417.913C324.972 418.183 324.473 418.353 323.955 418.413C323.374 418.433 322.804 418.574 322.282 418.828C321.759 419.083 321.296 419.444 320.923 419.889C319.855 421.274 319.2 423.152 321.296 424.806L328.951 427.448C328.951 427.448 342.114 429.172 341.419 426.202C340.724 423.232 340.27 420.659 340.27 420.659C340.324 418.854 339.959 417.06 339.202 415.42C339.064 415.154 338.908 414.897 338.737 414.651L339.202 414.599C339.202 414.599 340.167 408.068 341.448 406.827C341.746 406.54 341.815 406.322 341.741 406.149C341.873 405.793 341.54 405.575 341.109 405.466L341.017 405.724C340.596 405.633 340.167 405.585 339.736 405.581C339.736 405.581 339.311 402.163 340.701 400.922C340.813 400.78 340.895 400.617 340.942 400.442C340.988 400.267 340.998 400.085 340.971 399.906C340.981 399.436 340.932 398.967 340.827 398.51L340.776 398.59C340.075 395.488 337.703 390.549 337.703 390.549C337.703 390.549 337.594 387.441 338.456 386.195C339.317 384.948 338.347 369.307 338.347 369.307C338.347 369.307 338.668 361.742 337.703 358.221C336.739 354.7 338.881 350.553 338.881 350.553C338.881 350.553 338.881 350.467 338.881 350.323L338.909 350.271C338.909 350.271 338.858 349.806 338.783 349.082C338.783 349.082 338.783 349.128 338.783 349.151C338.565 347.152 338.157 343.522 337.858 341.845C337.428 339.461 337.962 328.059 337.962 328.059L339.891 323.188L343.337 331.586L346.978 342.775C346.978 342.775 348.781 345.136 348.822 347.531C348.83 347.648 348.83 347.765 348.822 347.882C348.794 348.132 348.781 348.383 348.781 348.634C348.717 350.045 349.106 351.44 349.89 352.615C349.89 352.615 350.854 357.899 352.353 359.249C353.852 360.599 353.852 363.184 353.852 363.184C353.852 363.184 355.667 370.852 356.528 372.202C357.246 373.351 357.286 376.458 357.281 377.412C357.281 377.59 357.281 377.693 357.281 377.693C357.281 377.693 357.533 380.433 357.522 382.737C357.522 383.018 357.522 383.311 357.522 383.558C357.519 383.537 357.519 383.516 357.522 383.495C357.517 384.124 357.442 384.75 357.298 385.362C357.298 385.362 357.298 385.431 357.264 385.471L357.298 385.08C356.912 386.644 356.72 388.249 356.724 389.859C356.672 392.616 357.091 395.879 358.762 397.792C361.634 401.112 363.472 400.698 363.472 400.698C363.472 400.698 362.082 404.84 360.365 405.667C360.301 405.7 360.241 405.741 360.187 405.788C360.187 405.707 360.152 405.627 360.141 405.546C359.955 405.755 359.814 406 359.728 406.266C359.642 406.532 359.612 406.813 359.641 407.091C359.515 408.912 360.663 411.871 361.76 413.232C362.163 413.632 362.661 413.922 363.207 414.076L362.937 414.243C362.751 414.347 362.56 414.441 362.363 414.524C362.086 414.646 361.792 414.722 361.49 414.748C360.909 414.765 360.338 414.906 359.815 415.16C359.293 415.415 358.83 415.778 358.458 416.225C357.39 417.603 356.735 419.481 358.831 421.136L366.487 423.778C366.487 423.778 379.563 425.467 378.868 422.509Z" fill="url(#paint1_linear)"/>
<path d="M328.584 427.414L321.175 424.772C319.131 423.117 319.786 421.239 320.814 419.855C321.169 419.413 321.615 419.053 322.121 418.798C322.627 418.544 323.182 418.401 323.748 418.379C324.252 418.319 324.736 418.148 325.167 417.879C325.63 417.618 326.024 417.249 326.315 416.805C326.861 415.946 327.153 414.95 327.159 413.933C327.159 413.933 335.297 411.549 337.497 413.933C337.893 414.364 338.226 414.849 338.484 415.374C339.216 417.021 339.569 418.812 339.518 420.613C339.518 420.613 339.937 423.204 340.604 426.156C341.27 429.109 328.584 427.414 328.584 427.414Z" fill="#2D293D"/>
<path d="M364.844 423.755L357.436 421.113C355.391 419.459 356.04 417.58 357.074 416.202C357.427 415.758 357.873 415.396 358.379 415.141C358.886 414.887 359.442 414.745 360.009 414.725C360.301 414.699 360.586 414.623 360.853 414.501C361.051 414.422 361.243 414.328 361.427 414.22C363.495 413.071 363.443 410.285 363.443 410.285C363.443 410.285 371.575 407.901 373.78 410.285C374.079 410.606 374.339 410.96 374.555 411.342C375.957 413.755 375.801 416.971 375.801 416.971C375.801 416.971 376.215 419.562 376.887 422.514C377.559 425.467 364.844 423.755 364.844 423.755Z" fill="#2D293D"/>
<path opacity="0.1" d="M337.542 413.938C337.939 414.369 338.272 414.855 338.53 415.38L326.338 416.793C326.884 415.934 327.176 414.939 327.182 413.921C327.182 413.921 335.32 411.555 337.542 413.938Z" fill="black"/>
<path opacity="0.1" d="M374.578 411.331V413.628C372.689 416.753 363.518 416.07 360.853 414.501C361.051 414.422 361.243 414.328 361.427 414.22C363.495 413.071 363.443 410.285 363.443 410.285C363.443 410.285 371.575 407.901 373.78 410.285C374.087 410.601 374.354 410.952 374.578 411.331Z" fill="black"/>
<path d="M376.031 401.503C375.463 402.497 374.978 403.537 374.578 404.61V412.795C372.511 416.242 361.737 415.093 360.284 413.209C358.831 411.325 357.281 406.477 358.94 405.65C360.6 404.823 361.944 400.675 361.944 400.675C361.944 400.675 360.181 401.089 357.384 397.775C354.587 394.46 355.414 387.102 355.937 385.339C356.46 383.575 355.937 377.67 355.937 377.67C355.937 377.67 356.04 373.529 355.208 372.179C354.375 370.829 352.618 363.167 352.618 363.167C352.618 363.167 352.618 360.576 351.17 359.226C349.723 357.876 348.787 352.598 348.787 352.598C347.934 351.279 347.563 349.707 347.736 348.146C348.052 345.555 345.979 342.758 345.979 342.758L342.458 331.569L339.139 323.177L337.29 328.042C337.29 328.042 336.767 339.438 337.186 341.827C337.606 344.217 338.22 350.53 338.22 350.53C338.22 350.53 336.147 354.677 337.072 358.198C337.996 361.719 337.692 369.284 337.692 369.284C337.692 369.284 338.622 384.931 337.795 386.172C336.968 387.412 337.072 390.526 337.072 390.526C337.072 390.526 341.316 399.641 339.943 400.865C338.57 402.088 339.007 405.529 339.007 405.529C339.007 405.529 341.878 405.529 340.667 406.77C339.455 408.011 338.547 414.559 338.547 414.559L326.022 416.006C326.022 416.006 324.874 414.559 323.214 410.722C321.554 406.885 323.524 407.275 325.195 406.89C326.867 406.506 325.804 405.437 323.84 404.197C321.876 402.956 323.007 400.176 323.007 400.176C323.007 400.176 326.011 395.098 324.977 394.679C323.943 394.259 323.829 387.119 323.829 387.119C323.829 387.119 321.755 378.618 322.272 376.344C322.789 374.069 320.613 368.572 320.613 368.572L319.889 362.041C317.668 358.341 316.852 353.966 317.592 349.714V339.645C317.592 339.645 314.72 320.167 314.278 310.321C314.014 304.003 314.089 295.415 314.175 290.045C314.226 287.035 314.278 285.042 314.278 285.042L359.044 280.366C359.112 282.601 359.383 284.826 359.854 287.012C360.307 289.47 361.002 292.653 362.151 296.633C365.361 308.029 363.391 316.525 363.391 316.525L362.978 330.931C362.978 330.931 366.917 340.564 366.085 343.884C365.589 345.85 365.311 347.865 365.258 349.892C365.258 349.892 374.061 370.927 373.131 377.039C372.201 383.15 376.002 392.789 376.002 392.789C376.002 392.789 377.065 399.636 376.031 401.503Z" fill="#575988"/>
<path opacity="0.05" d="M350.441 347.52L364.069 345.705C364.069 345.705 356.35 353.58 350.441 347.52Z" fill="black"/>
<path opacity="0.1" d="M362.093 332.39C362.093 332.39 362.558 337.209 359.607 339.024C359.612 339.024 364.896 338.191 362.093 332.39Z" fill="black"/>
<path opacity="0.1" d="M361.261 317.059C361.261 317.059 349.872 326.433 345.755 325.675C341.637 324.917 361.261 317.059 361.261 317.059Z" fill="black"/>
<path opacity="0.1" d="M333.557 351.926C333.557 351.926 324.908 353.89 324.65 357.365C324.391 360.84 333.557 351.926 333.557 351.926Z" fill="black"/>
<path opacity="0.05" d="M335.458 395.132C335.458 395.132 323.237 397.43 326.706 398.964C330.174 400.497 335.894 401.761 335.894 401.761C335.894 401.761 339.811 401.968 335.458 395.132Z" fill="black"/>
<g opacity="0.05">
<rect width="62.4098" height="130.988" fill="black" fill-opacity="0" transform="translate(314.085 284.743)"/>
<path opacity="0.05" d="M324.236 401.434C323.93 401.239 323.671 400.979 323.479 400.672C323.286 400.365 323.164 400.019 323.122 399.659L322.996 399.877C322.996 399.877 321.847 402.674 323.823 403.898C324.053 404.041 324.265 404.185 324.46 404.323C324.828 404.254 325.218 404.202 325.609 404.11C327.263 403.708 326.206 402.674 324.236 401.434Z" fill="black"/>
<path opacity="0.05" d="M339.983 400.601C340.322 400.291 340.311 399.492 340.104 398.47C339.604 399.39 339.364 400.428 339.409 401.474C339.537 401.146 339.733 400.848 339.983 400.601Z" fill="black"/>
<path opacity="0.05" d="M338.105 349.054C337.653 350.278 337.374 351.56 337.278 352.862C337.512 351.961 337.83 351.084 338.226 350.243C338.226 350.243 338.18 349.777 338.105 349.054Z" fill="black"/>
<path opacity="0.05" d="M366.113 343.614C366.198 343.237 366.237 342.851 366.228 342.465C366.073 343.235 365.964 343.953 365.889 344.585C365.929 344.28 366.004 343.953 366.113 343.614Z" fill="black"/>
<path opacity="0.05" d="M337.807 385.89C338.045 385.149 338.15 384.371 338.117 383.593C337.742 384.516 337.547 385.502 337.543 386.499C337.606 386.286 337.695 386.082 337.807 385.89Z" fill="black"/>
<path opacity="0.05" d="M340.374 405.426C339.73 407.506 339.254 409.634 338.95 411.79L326.424 413.243C326.424 413.243 325.276 411.79 323.616 407.959C323.473 407.62 323.358 407.321 323.266 407.046C322.513 407.39 322.221 408.194 323.203 410.446C324.862 414.277 326.005 415.731 326.005 415.731L338.548 414.277C338.548 414.277 339.478 407.752 340.718 406.506C341.321 405.897 340.931 405.587 340.374 405.426Z" fill="black"/>
<path opacity="0.05" d="M323.823 386.821C323.823 386.821 323.926 393.972 324.971 394.386C325.494 393.202 325.844 392.088 325.379 391.893C324.34 391.479 324.231 384.328 324.231 384.328C324.231 384.328 322.163 375.832 322.68 373.552C323.197 371.272 321.02 365.78 321.02 365.78L320.297 359.255C318.072 355.555 317.256 351.176 318 346.922V336.87C318 336.87 315.128 317.392 314.686 307.576C314.422 301.257 314.496 292.641 314.583 287.299C314.583 286.328 314.611 285.467 314.628 284.743L314.272 284.777C314.272 284.777 314.215 286.771 314.169 289.786C314.077 295.151 314.003 303.756 314.272 310.057C314.686 319.902 317.586 339.381 317.586 339.381V349.433C316.843 353.686 317.659 358.065 319.883 361.765L320.613 368.25C320.613 368.25 322.789 373.742 322.272 376.022C321.755 378.302 323.823 386.821 323.823 386.821Z" fill="black"/>
<path opacity="0.05" d="M360.704 410.446C359.686 408.973 359.009 407.291 358.722 405.523C357.442 406.672 358.912 411.158 360.29 412.933C361.737 414.794 372.511 415.937 374.584 412.52V410.544C371.781 413.324 362.093 412.21 360.704 410.446Z" fill="black"/>
<path opacity="0.05" d="M376.45 398.74C375.879 399.732 375.392 400.772 374.997 401.847V403.289C375.233 402.755 375.572 402.048 376.037 401.21C376.368 400.397 376.522 399.524 376.491 398.648C376.473 398.676 376.459 398.707 376.45 398.74Z" fill="black"/>
<path opacity="0.05" d="M361.341 400.371C361.736 399.573 362.078 398.75 362.363 397.907C362.363 397.907 360.6 398.32 357.803 395.035C355.765 392.622 355.65 388.067 355.943 385.092C355.42 386.849 354.593 394.208 357.39 397.522C359.222 399.664 360.6 400.233 361.341 400.371Z" fill="black"/>
<path opacity="0.05" d="M355.937 377.395C356.119 379.436 356.188 381.486 356.144 383.535C356.197 383.21 356.268 382.888 356.356 382.57C356.879 380.812 356.356 374.908 356.356 374.908C356.356 374.908 356.459 370.76 355.633 369.416C354.806 368.072 353.042 360.398 353.042 360.398C353.042 360.398 353.042 357.807 351.595 356.463C350.148 355.119 349.212 349.829 349.212 349.829C348.361 348.51 347.994 346.937 348.173 345.377C348.483 342.787 346.415 339.989 346.415 339.989L342.889 328.794L339.575 320.402L337.709 325.273C337.709 325.273 337.709 325.888 337.646 326.847L339.162 322.889L342.476 331.281L346.013 342.477C346.013 342.477 348.086 345.274 347.776 347.865C347.597 349.424 347.965 350.997 348.816 352.316C348.816 352.316 349.746 357.601 351.193 358.951C352.641 360.3 352.646 362.885 352.646 362.885C352.646 362.885 354.409 370.554 355.236 371.903C356.063 373.253 355.937 377.395 355.937 377.395Z" fill="black"/>
</g>
<path d="M364.637 186.738L363.856 190.517L363.902 192.2L363.937 193.447L359.612 193.889L359.13 192.993C358.234 191.373 356.379 188.076 355.776 187.571C354.978 186.899 353.554 176.381 355.265 177.002C356.31 177.406 357.167 178.184 357.671 179.184C357.671 179.184 366.165 180.184 364.637 186.738Z" fill="#FFCDD3"/>
<path opacity="0.1" d="M363.937 193.47L359.612 193.912L359.13 193.016C359.712 192.354 360.506 191.914 361.376 191.771C362.246 191.627 363.138 191.789 363.902 192.229L363.937 193.47Z" fill="black"/>
<path d="M365.028 195.515L359.325 196.836L359.21 195.986L358.883 193.688C358.883 193.688 361.14 190.678 364.402 192.936L364.683 194.084L365.028 195.515Z" fill="#DCE6F2"/>
<path d="M272.694 187.174L266.612 190.437L266.038 189.288C265.464 188.076 264.597 186.25 264.361 185.595C263.999 184.59 261.461 183.297 261.461 183.297C255.092 177.208 262.679 171.976 262.679 171.976C266.699 163.894 271.172 174.721 271.172 174.721C271.172 174.721 271.792 180.425 271.356 180.81C270.92 181.195 270.914 182.751 270.914 182.751C271.496 183.872 271.988 185.038 272.384 186.238C272.596 186.818 272.694 187.174 272.694 187.174Z" fill="#FFCDD3"/>
<path opacity="0.1" d="M272.694 187.174L266.612 190.437L266.038 189.288C266.894 188.576 269.943 186.106 270.943 186.215C271.421 186.274 271.903 186.287 272.384 186.255C272.596 186.818 272.694 187.174 272.694 187.174Z" fill="black"/>
<path d="M273.314 189.035L266.48 192.407L266.343 190.937L266.245 189.92C266.245 189.92 270.207 186.525 271.379 186.652C271.971 186.738 272.573 186.738 273.165 186.652L273.24 187.881L273.314 189.035Z" fill="#DCE6F2"/>
<path d="M348.063 211.885C348.063 211.885 318.246 215.251 323.823 213.442C327.699 212.178 329.238 209.714 329.566 206.974C329.824 204.677 329.238 202.207 328.451 200.081C327.748 198.2 326.855 196.394 325.787 194.693C325.787 194.693 348.58 182.154 344.02 193.545C343.317 195.268 342.881 197.089 342.728 198.944C342.584 200.785 342.779 202.636 343.303 204.407C344.165 207.293 345.814 209.882 348.063 211.885Z" fill="#FFCDD3"/>
<path opacity="0.1" d="M344.02 193.55C343.317 195.274 342.881 197.095 342.728 198.95C340.581 200.753 338.226 200.633 335.205 200.633C332.908 200.633 330.312 201.207 328.452 200.058C327.748 198.177 326.855 196.371 325.787 194.67C325.787 194.67 348.58 182.143 344.02 193.55Z" fill="black"/>
<path d="M334.797 201.425C341.607 201.425 347.127 195.904 347.127 189.093C347.127 182.282 341.607 176.76 334.797 176.76C327.988 176.76 322.467 182.282 322.467 189.093C322.467 195.904 327.988 201.425 334.797 201.425Z" fill="#FFCDD3"/>
<path opacity="0.1" d="M348.063 211.885C348.063 211.885 318.246 215.251 323.823 213.442C327.699 212.178 329.238 209.714 329.566 206.974C331.047 205.366 334.028 204.206 335.946 203.591C337.695 203.003 339.583 202.973 341.35 203.505C342.045 203.711 342.707 204.017 343.314 204.412C344.174 207.295 345.819 209.883 348.063 211.885Z" fill="black"/>
<path opacity="0.1" d="M365.028 195.515L359.325 196.836L359.21 195.986C359.82 195.149 360.672 194.52 361.651 194.185C362.631 193.85 363.689 193.825 364.683 194.113L365.028 195.515Z" fill="black"/>
<path opacity="0.1" d="M273.314 189.035L266.48 192.407L266.342 190.937C268.56 189.747 270.864 188.725 273.234 187.881L273.314 189.035Z" fill="black"/>
<path opacity="0.1" d="M359.854 287.023C348.31 288.85 331.874 291.222 329.267 290.43C327.108 289.769 320.199 289.855 314.186 290.045C314.238 287.035 314.29 285.042 314.29 285.042L359.044 280.366C359.112 282.605 359.383 284.833 359.854 287.023Z" fill="black"/>
<path d="M371.368 284.312C371.368 284.312 333.35 290.843 329.267 289.597C325.184 288.35 304.24 289.7 304.24 289.7C294.816 296.019 298.749 286.696 298.749 286.696C298.749 286.696 297.922 281.825 299.06 277.89C299.832 275.004 300.362 272.059 300.645 269.085C300.645 269.085 300.438 262.864 301.575 261.416C302.712 259.969 304.062 249.601 304.062 249.601C304.062 249.601 305.101 242.559 304.998 240.985C305.002 239.012 305.106 237.042 305.308 235.08L306.652 227.825C298.882 226.791 275.261 212.282 275.261 212.282C274.113 207.416 265.32 196.014 265.32 196.014C265.192 195.056 264.947 194.116 264.591 193.217C263.971 191.563 273.297 188.249 273.297 188.249C273.297 188.249 280.234 196.744 281.687 199.024C283.14 201.305 288.108 205.55 288.108 205.55C288.886 205.47 289.673 205.572 290.405 205.848L290.526 205.883C292.193 206.542 293.756 207.44 295.166 208.548C297.501 208.492 299.767 209.347 301.483 210.932C301.483 210.932 305.733 210.311 306.456 211.035C307.18 211.759 310.809 211.035 310.809 211.035C310.809 211.035 314.433 203.367 316.816 205.596C319.2 207.824 329.307 207.721 329.307 207.721C330.657 205.929 333.936 204.642 335.986 203.981C337.736 203.396 339.623 203.366 341.39 203.895C342.154 204.114 342.874 204.462 343.521 204.924L349.654 210.932C349.654 210.932 351.417 208.634 351.211 208.134C351.004 207.635 353.284 207.204 353.284 207.204C353.284 207.204 356.287 206.268 357.424 205.957C358.561 205.647 359.607 206.882 359.721 206.991C359.687 206.859 358.906 204.349 359.21 202.436C359.515 200.524 357.964 198.703 357.964 198.703C361.594 189.794 369.777 197.255 369.777 197.255C369.777 197.255 370.708 202.126 369.881 203.987C369.054 205.848 370.708 209.794 370.501 210.828C370.294 211.862 370.914 213.626 370.914 215.596C370.914 217.566 369.881 221.294 369.255 222.948C368.629 224.603 363.661 228.336 363.661 228.336C363.661 228.336 363.351 234.247 361.174 237.665C358.998 241.082 360.284 252.795 360.284 252.795C360.284 252.795 362.357 261.933 364.965 264.857C367.572 267.781 371.368 284.312 371.368 284.312Z" fill="#656691"/>
<path opacity="0.1" d="M315.949 216.136C315.949 216.136 314.801 212.718 313.773 212.408C312.743 212.026 311.739 211.575 310.769 211.058L311.435 209.783C311.435 209.783 315.323 210.851 315.949 211.989C316.575 213.126 315.949 216.136 315.949 216.136Z" fill="black"/>
<path opacity="0.1" d="M295.126 208.565C294.919 209.599 285.696 210.535 285.696 210.535L290.359 205.86L290.474 205.9C292.145 206.559 293.712 207.457 295.126 208.565Z" fill="black"/>
<path d="M268.444 195.176C268.901 195.176 269.271 194.806 269.271 194.349C269.271 193.892 268.901 193.522 268.444 193.522C267.988 193.522 267.617 193.892 267.617 194.349C267.617 194.806 267.988 195.176 268.444 195.176Z" fill="#575988"/>
<path d="M269.507 196.836C269.964 196.836 270.334 196.466 270.334 196.009C270.334 195.552 269.964 195.182 269.507 195.182C269.05 195.182 268.68 195.552 268.68 196.009C268.68 196.466 269.05 196.836 269.507 196.836Z" fill="#575988"/>
<path d="M270.546 198.364C271.003 198.364 271.373 197.993 271.373 197.537C271.373 197.08 271.003 196.71 270.546 196.71C270.09 196.71 269.719 197.08 269.719 197.537C269.719 197.993 270.09 198.364 270.546 198.364Z" fill="#575988"/>
<path d="M271.632 200.024C272.088 200.024 272.459 199.654 272.459 199.197C272.459 198.74 272.088 198.37 271.632 198.37C271.175 198.37 270.805 198.74 270.805 199.197C270.805 199.654 271.175 200.024 271.632 200.024Z" fill="#575988"/>
<path d="M369.283 199.777C369.654 199.777 369.955 199.476 369.955 199.105C369.955 198.734 369.654 198.433 369.283 198.433C368.912 198.433 368.611 198.734 368.611 199.105C368.611 199.476 368.912 199.777 369.283 199.777Z" fill="#575988"/>
<path d="M369.387 201.305C369.758 201.305 370.059 201.004 370.059 200.633C370.059 200.262 369.758 199.961 369.387 199.961C369.016 199.961 368.715 200.262 368.715 200.633C368.715 201.004 369.016 201.305 369.387 201.305Z" fill="#575988"/>
<path d="M369.479 202.833C369.85 202.833 370.151 202.532 370.151 202.161C370.151 201.789 369.85 201.489 369.479 201.489C369.108 201.489 368.807 201.789 368.807 202.161C368.807 202.532 369.108 202.833 369.479 202.833Z" fill="#575988"/>
<path opacity="0.1" d="M316.001 244.213C315.903 244.092 339.254 273.588 357.384 256.545C357.384 256.545 328.739 260.428 316.001 244.213Z" fill="black"/>
<path opacity="0.1" d="M302.586 259.55C302.586 259.55 316.558 259.929 318.017 263.949V268.137C317.62 268.358 317.173 268.474 316.719 268.474C316.265 268.474 315.818 268.358 315.421 268.137C314.014 267.373 305.561 263.082 302.586 265.144V259.55Z" fill="black"/>
<path d="M302.844 259.55C302.844 259.55 316.208 259.911 317.603 263.748V267.729C317.223 267.94 316.795 268.051 316.36 268.051C315.925 268.051 315.497 267.94 315.117 267.729C313.773 267.005 305.693 262.91 302.844 264.857V259.55Z" fill="#656691"/>
<path opacity="0.1" d="M310.212 229.198C311.64 232.503 313.458 235.625 315.628 238.498C317.993 241.673 320.86 244.441 324.116 246.694C324.116 246.694 310.442 231.122 310.212 229.198Z" fill="black"/>
<path opacity="0.1" d="M305.641 212.959C305.641 212.959 307.973 223.023 313.98 226.447L305.641 212.959Z" fill="black"/>
<path opacity="0.1" d="M302.063 213.976C302.006 213.792 299.996 221.937 309.81 226.447C309.833 226.447 305.641 225.028 302.063 213.976Z" fill="black"/>
<path opacity="0.1" d="M363.081 207.227C362.926 207.227 367.928 210.409 369.283 211.885C369.283 211.885 366.033 207.02 363.081 207.227Z" fill="black"/>
<path d="M331.467 200.271C331.566 200.928 331.91 201.524 332.431 201.937C332.79 202.108 333.183 202.196 333.58 202.195C337.342 202.425 341.252 202.591 344.727 201.144C345.385 200.918 345.977 200.534 346.45 200.024C347.07 199.266 347.185 198.237 347.437 197.295C347.92 195.452 348.959 193.809 349.735 192.057C350.994 189.093 351.415 185.841 350.952 182.654C350.861 181.676 350.54 180.733 350.016 179.902C349.017 178.478 347.202 177.903 345.881 176.772C344.56 175.64 343.716 173.9 342.177 173.05C340.787 172.28 339.093 172.372 337.525 172.636C334.43 173.155 331.463 174.262 328.785 175.899C327.895 176.444 326.913 177.076 325.913 176.887C325.012 176.714 324.357 175.956 323.777 175.25C323.044 176.94 322.729 178.782 322.858 180.62C322.904 180.888 322.904 181.162 322.858 181.43C322.728 181.752 322.533 182.044 322.284 182.286C321.353 183.36 320.773 185.066 321.709 186.152C322.106 186.629 322.72 186.887 323.111 187.37C323.806 188.237 323.57 189.478 323.553 190.592C323.513 190.977 323.611 191.363 323.829 191.683C324.03 191.87 324.275 192.001 324.542 192.064C324.809 192.128 325.087 192.121 325.35 192.045C325.875 191.889 326.425 191.836 326.97 191.89C327.549 192.08 328.046 192.464 328.377 192.976C330.065 195.182 330.737 197.611 331.467 200.271Z" fill="#2D293D"/>
<g opacity="0.1">
<rect width="25.799" height="27.1199" fill="black" fill-opacity="0" transform="translate(321.196 175.129)"/>
<path opacity="0.1" d="M346.846 199.07C346.377 199.592 345.785 199.987 345.123 200.219C341.677 201.667 337.738 201.5 333.976 201.265C333.578 201.271 333.185 201.182 332.828 201.006C332.305 200.594 331.96 199.998 331.863 199.34C331.134 196.687 330.462 194.257 328.722 192.051C328.391 191.539 327.894 191.156 327.315 190.965C326.77 190.909 326.219 190.961 325.695 191.121C325.434 191.192 325.159 191.197 324.896 191.133C324.633 191.07 324.39 190.941 324.19 190.759C323.972 190.437 323.875 190.048 323.915 189.662C323.915 188.553 324.167 187.306 323.473 186.445C323.082 185.957 322.473 185.704 322.071 185.227C321.812 184.874 321.653 184.458 321.611 184.022C321.568 183.587 321.644 183.148 321.83 182.751C321.175 183.797 320.888 185.141 321.658 186.054C322.054 186.531 322.669 186.79 323.059 187.272C323.754 188.139 323.518 189.38 323.501 190.494C323.462 190.879 323.559 191.266 323.777 191.586C323.978 191.772 324.224 191.903 324.49 191.967C324.757 192.03 325.035 192.024 325.299 191.948C325.823 191.791 326.373 191.739 326.918 191.793C327.498 191.983 327.994 192.366 328.325 192.878C330.048 195.084 330.737 197.514 331.467 200.173C331.469 200.443 331.527 200.709 331.637 200.955C331.747 201.201 331.907 201.421 332.107 201.602C332.306 201.783 332.542 201.92 332.797 202.005C333.053 202.091 333.323 202.122 333.591 202.097C337.353 202.327 341.264 202.494 344.738 201.046C345.396 200.821 345.988 200.436 346.461 199.926C346.696 199.626 346.876 199.288 346.995 198.927C346.948 198.977 346.899 199.025 346.846 199.07Z" fill="black"/>
<path opacity="0.1" d="M322.858 181.103C323.027 180.925 323.156 180.714 323.237 180.483C323.283 180.215 323.283 179.941 323.237 179.673C323.131 178.162 323.326 176.644 323.811 175.209L323.742 175.129C323.007 176.819 322.692 178.662 322.824 180.5C322.852 180.699 322.864 180.901 322.858 181.103Z" fill="black"/>
</g>
<path opacity="0.1" d="M329.267 207.744C329.267 207.744 344.669 209.783 346.053 207.468L329.267 207.744Z" fill="black"/>
<path opacity="0.1" d="M359.222 201.368C359.222 201.368 367.773 201.368 369.657 204.59L359.222 201.368Z" fill="black"/>
<defs>
<linearGradient id="paint0_linear" x1="461.295" y1="228.049" x2="461.295" y2="-0.00738112" gradientUnits="userSpaceOnUse">
<stop stop-color="#808080" stop-opacity="0.25"/>
<stop offset="0.54" stop-color="#808080" stop-opacity="0.12"/>
<stop offset="1" stop-color="#808080" stop-opacity="0.1"/>
</linearGradient>
<linearGradient id="paint1_linear" x1="79362.9" y1="215840" x2="79362.9" y2="99118.2" gradientUnits="userSpaceOnUse">
<stop stop-color="#808080" stop-opacity="0.25"/>
<stop offset="0.54" stop-color="#808080" stop-opacity="0.12"/>
<stop offset="1" stop-color="#808080" stop-opacity="0.1"/>
</linearGradient>
</defs>
</svg>
