<svg width="1189" height="1024" viewBox="0 0 1189 1024" fill="none" xmlns="http://www.w3.org/2000/svg">
<rect width="1647.88" height="898.799" fill="black" fill-opacity="0" transform="translate(329.411 -413) rotate(21.5)"/>
<path d="M764.807 -76.4361C715.489 -29.5226 706.355 8.4713 737.4 37.5446C783.971 81.1552 911.745 141.593 947.905 210.646C984.064 279.697 1165.75 308.895 1226.43 238.73C1287.11 168.564 1388.05 63.3365 1116.5 -43.6309C935.459 -114.943 818.231 -125.878 764.807 -76.4357L764.807 -76.4361Z" fill="#FFFA72"/>
<path d="M275.607 -138.153C137.518 -6.79554 111.942 99.5874 198.87 180.993C329.266 303.102 687.034 472.328 788.283 665.676C889.527 859.018 1398.25 940.774 1568.15 744.311C1738.06 547.848 2020.68 253.21 1260.34 -46.2986C753.433 -245.973 425.197 -276.591 275.609 -138.152L275.607 -138.153Z" fill="#C3002F" fill-opacity="0.02"/>
<path d="M316.374 -133.01C185.682 -8.68949 161.476 91.9944 243.747 169.039C367.158 284.607 705.76 444.767 801.585 627.756C897.406 810.741 1378.88 888.118 1539.68 702.179C1700.48 516.241 1967.96 237.387 1248.35 -46.0763C768.602 -235.054 457.95 -264.031 316.376 -133.009L316.374 -133.01Z" fill="#C3002F" fill-opacity="0.05"/>
<path d="M357.14 -127.867C233.847 -10.5834 211.01 84.4014 288.625 157.085C405.05 266.111 724.486 417.206 814.887 589.837C905.284 762.465 1359.5 835.461 1511.2 660.048C1662.9 484.634 1915.24 221.565 1236.36 -45.854C783.771 -224.135 490.703 -251.472 357.142 -127.866L357.14 -127.867Z" fill="#C3002F" fill-opacity="0.1"/>
<path d="M397.907 -122.724C282.011 -12.4773 260.545 76.8084 333.503 145.131C442.942 247.615 743.212 389.644 828.189 551.918C913.162 714.188 1340.13 782.804 1482.72 617.916C1625.32 453.027 1862.53 205.742 1224.38 -45.6317C798.94 -213.216 523.455 -238.913 397.909 -122.723L397.907 -122.724Z" fill="#C3002F" fill-opacity="0.2"/>
<path d="M438.673 -117.581C330.175 -14.3713 310.079 69.2154 378.38 133.177C480.834 229.12 761.938 362.083 841.49 513.999C921.04 665.911 1320.75 730.148 1454.25 575.784C1587.74 421.42 1809.81 189.919 1212.39 -45.4094C814.108 -202.297 556.208 -226.353 438.675 -117.58L438.673 -117.581Z" fill="#C3002F" fill-opacity="0.3"/>
<path d="M479.44 -112.438C378.339 -16.2652 359.614 61.6224 423.258 121.223C518.726 210.624 780.664 334.522 854.792 476.08C928.918 617.634 1301.38 677.491 1425.77 533.652C1550.16 389.813 1757.09 174.096 1200.4 -45.1871C829.277 -191.377 588.961 -213.794 479.442 -112.437L479.44 -112.438Z" fill="#C3002F" fill-opacity="0.4"/>
<path d="M520.207 -107.295C426.504 -18.1591 409.148 54.0293 468.135 109.269C556.618 192.129 799.39 306.961 868.094 438.161C936.796 569.357 1282 624.835 1397.29 491.52C1512.58 358.206 1704.37 158.273 1188.42 -44.9648C844.446 -180.458 621.714 -201.234 520.208 -107.294L520.207 -107.295Z" fill="#C3002F" fill-opacity="0.2"/>
<path d="M560.973 -102.152C474.668 -20.053 458.683 46.4364 513.013 97.3147C594.51 173.633 818.116 279.399 881.396 400.241C944.674 521.081 1262.63 572.178 1368.82 449.389C1475 326.599 1651.65 142.451 1176.43 -44.7424C859.615 -169.539 654.467 -188.675 560.975 -102.151L560.973 -102.152Z" fill="#C3002F" fill-opacity="0.3"/>
<path d="M601.74 -97.0084C522.832 -21.9469 508.217 38.8433 557.89 85.3607C632.403 155.138 836.841 251.838 894.698 362.322C952.552 472.804 1243.25 519.522 1340.34 407.257C1437.42 294.992 1598.93 126.628 1164.44 -44.5201C874.784 -158.62 687.22 -176.116 601.741 -97.0079L601.74 -97.0084Z" fill="#C3002F" fill-opacity="0.4"/>
<path d="M642.507 -91.8653C570.996 -23.8408 557.751 31.2504 602.768 73.4067C670.295 136.642 855.567 224.277 908 324.403C960.43 424.527 1223.88 466.865 1311.86 365.125C1399.85 263.385 1546.21 110.805 1152.46 -44.2978C889.952 -147.701 719.973 -163.556 642.508 -91.8648L642.507 -91.8653Z" fill="#C3002F" fill-opacity="0.5"/>
<path d="M683.273 -86.7223C619.161 -25.7348 607.286 23.6573 647.645 61.4526C708.187 118.146 874.293 196.716 921.301 286.484C968.308 376.25 1204.5 414.208 1283.38 322.993C1362.27 231.778 1493.49 94.9821 1140.47 -44.0755C905.121 -136.782 752.726 -150.997 683.274 -86.7218L683.273 -86.7223Z" fill="#C3002F" fill-opacity="0.7"/>
<path d="M724.04 -81.5792C667.325 -27.6287 656.82 16.0643 692.523 49.4986C746.079 99.6507 893.019 169.154 934.603 248.565C976.186 327.973 1185.13 361.552 1254.91 280.862C1324.69 200.171 1440.77 79.1593 1128.48 -43.8532C920.29 -125.862 785.479 -138.437 724.041 -81.5788L724.04 -81.5792Z" fill="#C3002F"/>
</svg>
